<?xml version="1.0" standalone="no"?>
<!DOCTYPE svg PUBLIC "-//W3C//DTD SVG 1.1//EN" "http://www.w3.org/Graphics/SVG/1.1/DTD/svg11.dtd" >
<svg>
<metadata>
Created by FontForge 20090622 at Tue Jul 26 12:26:12 2016
 By deploy user
Copyright (c) 2013 by Gayane Bagdasaryan, Dmitry Rastvortsev. All rights reserved.
</metadata>
<defs>
<font id="BrutalType-Light" horiz-adv-x="1123" >
  <font-face 
    font-family="Brutal Type"
    font-weight="300"
    font-stretch="normal"
    units-per-em="2048"
    panose-1="2 0 6 3 2 0 0 2 0 4"
    ascent="1647"
    descent="-401"
    x-height="1063"
    cap-height="1463"
    bbox="-92 -359 2195 1983"
    underline-thickness="102"
    underline-position="-102"
    unicode-range="U+000D-U+FB02"
  />
<missing-glyph horiz-adv-x="748" 
d="M68 0v1365h544v-1365h-544zM136 68h408v1229h-408v-1229z" />
    <glyph glyph-name="uniFB01" unicode="fi" horiz-adv-x="1148" 
d="M44 963v100h181v67q0 165 83.5 256t245.5 91q19 0 70 -4v-103h-20q-22 3 -38 3q-116 0 -171.5 -56.5t-55.5 -186.5v-67h630v-1063h-112v963h-518v-963h-114v963h-181zM857 1243v230h112v-230h-112z" />
    <glyph glyph-name="uniFB02" unicode="fl" horiz-adv-x="1150" 
d="M44 963v100h181v67q0 165 83.5 256t245.5 91q19 0 70 -4v-103h-20q-22 3 -38 3q-116 0 -171.5 -56.5t-55.5 -186.5v-67h279v-100h-279v-963h-114v963h-181zM859 0v1473h112v-1473h-112z" />
    <glyph glyph-name=".notdef" horiz-adv-x="748" 
d="M68 0v1365h544v-1365h-544zM136 68h408v1229h-408v-1229z" />
    <glyph glyph-name="glyph1" horiz-adv-x="2048" 
 />
    <glyph glyph-name="glyph1" horiz-adv-x="2048" 
 />
    <glyph glyph-name="uni000D" unicode="&#xd;" horiz-adv-x="2048" 
 />
    <glyph glyph-name="space" unicode=" " horiz-adv-x="536" 
 />
    <glyph glyph-name="exclam" unicode="!" horiz-adv-x="522" 
d="M201 0v257h120v-257h-120zM205 460v1003h112v-1003h-112z" />
    <glyph glyph-name="quotedbl" unicode="&#x22;" horiz-adv-x="688" 
d="M104 1238v235h121v-235l-26 -233h-67zM462 1238v235h122v-235l-26 -233h-67z" />
    <glyph glyph-name="numbersign" unicode="#" horiz-adv-x="1311" 
d="M60 403v105h249l88 447h-249v104h270l79 404h101v-42l-70 -362h385l79 404h100v-42l-71 -362h233v-104h-253l-88 -447h251v-105h-273l-78 -403h-101v42l69 361h-384l-78 -403h-102v42l72 361h-229zM418 508h386l87 447h-385z" />
    <glyph glyph-name="dollar" unicode="$" horiz-adv-x="1267" 
d="M106 474h113q0 -206 126 -303q130 -98 307 -98q170 0 265.5 77t95.5 205q0 42 -11 76.5t-31.5 63t-55 54.5t-77.5 48t-103 47l-198 77q-217 86 -299 162q-83 80 -83 233q0 160 114 262.5t311 112.5v193h114v-197q183 -18 307 -142q121 -121 121 -344h-113q0 98 -29 173.5
t-81.5 122t-123 69.5t-157.5 23q-106 0 -185.5 -33.5t-121.5 -94.5t-42 -141q0 -106 61 -167q64 -58 218 -118l198 -77q102 -39 170.5 -76t118.5 -84t72.5 -104t22.5 -131q0 -168 -112 -273.5t-324 -117.5v-208h-114v208q-203 16 -337 141q-137 131 -137 361z" />
    <glyph glyph-name="percent" unicode="%" horiz-adv-x="1593" 
d="M96 1030v167q0 138 80.5 217t224.5 79t224.5 -78.5t80.5 -217.5v-167q0 -138 -80.5 -217.5t-224.5 -79.5t-224.5 80t-80.5 217zM197 1021q0 -90 53.5 -144t150.5 -54q96 0 150.5 54.5t54.5 143.5v185q0 90 -53.5 144t-151.5 54q-97 0 -150.5 -54t-53.5 -144v-185zM337 0
v42l821 1421h98v-42l-824 -1421h-95zM887 265v167q0 138 81 217.5t224 79.5q145 0 226 -79t81 -218v-167q0 -138 -81 -217.5t-226 -79.5q-143 0 -224 80t-81 217zM988 257q0 -89 55 -144t149 -55q97 0 152 55.5t55 143.5v184q0 90 -54 144.5t-153 54.5q-94 0 -149 -55
t-55 -144v-184z" />
    <glyph glyph-name="ampersand" unicode="&#x26;" horiz-adv-x="1273" 
d="M73 369q0 79 26 145.5t77 126.5t137 130l61 50l-63 70q-47 53 -68 84q-27 36 -47.5 90.5t-20.5 110.5q0 131 90 216t228 85q136 0 221.5 -83t85.5 -216q0 -148 -158 -275l-110 -88l429 -472q83 149 83 353h107q0 -249 -113 -433l194 -209v-54h-98l-163 173
q-172 -203 -443 -203q-202 0 -329 112q-126 110 -126 287zM186 380q0 -136 96.5 -221.5t247.5 -85.5q233 0 371 176l-454 497l-65 -52q-110 -90 -153 -156t-43 -158zM289 1176q0 -42 10 -74t35 -67t73 -86l55 -62l102 86q128 103 128 207q0 86 -57 140.5t-144 54.5
q-89 0 -145.5 -55.5t-56.5 -143.5z" />
    <glyph glyph-name="quotesingle" unicode="'" horiz-adv-x="329" 
d="M104 1238v235h121v-235l-26 -233h-67z" />
    <glyph glyph-name="parenleft" unicode="(" horiz-adv-x="624" 
d="M201 20v1196q0 169 96.5 262t266.5 93v-104q-117 0 -184 -66t-67 -181v-1204q0 -115 66.5 -180.5t184.5 -65.5v-105q-170 0 -266.5 93t-96.5 262z" />
    <glyph glyph-name="parenright" unicode=")" horiz-adv-x="624" 
d="M60 -230q78 0 134.5 29.5t86.5 85t30 131.5v1204q0 115 -66.5 181t-184.5 66v104q113 0 194.5 -41t125.5 -121.5t44 -192.5v-1196q0 -169 -96.5 -262t-267.5 -93v105z" />
    <glyph glyph-name="asterisk" unicode="*" horiz-adv-x="861" 
d="M71 929l276 155l-276 154l46 80l272 -160l-2 315h89l-2 -315l272 162l46 -82l-278 -154l278 -155l-46 -78l-272 160l2 -315h-89l2 315l-272 -163z" />
    <glyph glyph-name="plus" unicode="+" horiz-adv-x="1096" 
d="M113 606v96h384v384h103v-384h384v-96h-384v-391h-103v391h-384z" />
    <glyph glyph-name="comma" unicode="," horiz-adv-x="450" 
d="M69 -201l142 470h124v-54l-176 -416h-90z" />
    <glyph glyph-name="hyphen" unicode="-" horiz-adv-x="907" 
d="M138 602v104h635v-104h-635z" />
    <glyph glyph-name="period" unicode="." horiz-adv-x="450" 
d="M165 0v269h122v-269h-122z" />
    <glyph glyph-name="slash" unicode="/" horiz-adv-x="951" 
d="M96 -167l658 1738h103v-42l-658 -1738h-103v42z" />
    <glyph glyph-name="zero" unicode="0" horiz-adv-x="1246" 
d="M159 435v593q0 219 123.5 342t339.5 123t341 -123.5t125 -341.5v-593q0 -219 -125 -343t-341 -124t-339.5 124t-123.5 343zM271 428q0 -162 94 -258.5t257 -96.5q164 0 258.5 96.5t94.5 258.5v604q0 108 -42 189t-122 124.5t-189 43.5q-163 0 -257 -96.5t-94 -260.5v-604
z" />
    <glyph glyph-name="one" unicode="1" horiz-adv-x="536" 
d="M90 1335v58l133 70h114v-1463h-114v1335h-133z" />
    <glyph glyph-name="two" unicode="2" horiz-adv-x="1166" 
d="M117 1028q0 216 124 340q125 125 321 125q200 0 315 -118q120 -119 120 -312q0 -64 -23 -137.5t-51 -127.5q-19 -42 -88 -121q-68 -81 -85 -99l-96 -98l-372 -376h746v-104h-900v94l442 452q79 79 117 120q44 51 92 115q56 72 80 139.5t24 142.5q0 151 -86 238.5
t-235 87.5q-153 0 -245 -96.5t-94 -264.5h-106z" />
    <glyph glyph-name="three" unicode="3" horiz-adv-x="1188" 
d="M113 420h108q5 -161 103.5 -254t267.5 -93q81 0 146.5 24t110 67.5t68 107t23.5 142.5q0 136 -86.5 218t-231.5 82h-127v99h123q132 0 210.5 76t78.5 205q0 61 -21.5 114.5t-60.5 94t-99.5 63.5t-133.5 23q-159 0 -247 -92.5t-90 -260.5h-109q1 108 32.5 194t89.5 144
t140.5 88.5t183.5 30.5q198 0 311 -112q114 -108 114 -278q0 -127 -61.5 -212t-170.5 -122q118 -31 193 -128.5t75 -233.5q0 -205 -123 -322t-340 -117q-216 0 -344 121t-133 331z" />
    <glyph glyph-name="four" unicode="4" horiz-adv-x="1132" 
d="M75 341v89l581 1033h100v-42l-551 -976h564v414h112v-414h197v-104h-197v-341h-112v341h-694z" />
    <glyph glyph-name="five" unicode="5" horiz-adv-x="1208" 
d="M142 378h113q21 -142 117 -223.5t242 -81.5q83 0 148.5 27.5t109 79t66.5 124t23 162.5q0 92 -24 165t-68 121t-107 73.5t-142 25.5q-185 0 -299 -141h-110l64 753h715v-105h-621l-46 -527q133 118 315 118q201 0 318.5 -123.5t117.5 -357.5q0 -231 -124 -365.5
t-338 -134.5q-195 0 -320 108.5t-150 301.5z" />
    <glyph glyph-name="six" unicode="6" horiz-adv-x="1196" 
d="M138 443q0 66 14.5 126.5t43.5 121.5t79 142l395 630h105v-42l-384 -606q97 82 263 82q98 0 178.5 -31.5t135.5 -90t84.5 -143.5t29.5 -189q0 -220 -126 -347.5t-346 -127.5q-224 0 -348 126.5t-124 348.5zM251 437q0 -170 93 -267t266 -97q172 0 265.5 97t93.5 267
t-91.5 266.5t-263.5 96.5q-166 0 -264.5 -97t-98.5 -266z" />
    <glyph glyph-name="seven" unicode="7" horiz-adv-x="1114" 
d="M106 1061v402h905v-99l-529 -1364h-102v42l511 1316h-678v-297h-107z" />
    <glyph glyph-name="eight" unicode="8" horiz-adv-x="1258" 
d="M138 395q0 144 79.5 241.5t208.5 130.5q-112 38 -177 122t-65 212q0 173 120 282.5t324 109.5q212 0 329 -110q119 -110 119 -282q0 -128 -65 -212t-176 -122q81 -21 145 -71t103 -128.5t39 -172.5q0 -200 -129.5 -313.5t-364.5 -113.5q-231 0 -360.5 114.5t-129.5 312.5
zM251 393q0 -150 100.5 -235t276.5 -85q178 0 279.5 85t101.5 235t-102 235.5t-279 85.5q-175 0 -276 -85.5t-101 -235.5zM297 1098.5q0 -134.5 88 -213.5q88 -76 243 -76q158 0 243 76q90 78 90 213.5t-90 213.5q-87 77 -243 77q-154 0 -243 -77q-88 -79 -88 -213.5z" />
    <glyph glyph-name="nine" unicode="9" horiz-adv-x="1196" 
d="M117 1028q0 215 125 340t347.5 125t347 -125t124.5 -340q0 -185 -130 -400l-377 -628h-103v42l374 608q-100 -84 -263 -84q-207 0 -326 123.5t-119 338.5zM230 1028q0 -171 91 -269.5t261 -98.5q166 0 266.5 98.5t100.5 269.5q0 167 -94 264t-265 97q-174 0 -267 -95.5
t-93 -265.5z" />
    <glyph glyph-name="colon" unicode=":" horiz-adv-x="450" 
d="M165 0v269h122v-269h-122zM165 794v269h122v-269h-122z" />
    <glyph glyph-name="semicolon" unicode=";" horiz-adv-x="450" 
d="M69 -201l142 470h124v-54l-176 -416h-90zM194 794v269h121v-269h-121z" />
    <glyph glyph-name="less" unicode="&#x3c;" horiz-adv-x="1014" 
d="M113 610v94l729 395h61v-78l-676 -363l676 -363v-80h-61z" />
    <glyph glyph-name="equal" unicode="=" horiz-adv-x="1094" 
d="M113 380v96h869v-96h-869zM113 833v96h869v-96h-869z" />
    <glyph glyph-name="greater" unicode="&#x3e;" horiz-adv-x="1014" 
d="M113 215v80l674 363l-674 363v78h60l730 -395v-94l-730 -395h-60z" />
    <glyph glyph-name="question" unicode="?" horiz-adv-x="1058" 
d="M75 1032q0 216 128 338q130 123 329 123q209 0 321 -112t112 -274q0 -154 -100 -254q-49 -50 -83 -77.5t-92 -65.5l-116 -75v-175h-112v215l158 106q65 45 90 65q18 14 69 65q39 42 56.5 88t17.5 108q0 122 -85 202t-236 80q-159 0 -254.5 -95t-95.5 -262h-107zM458 0
v257h120v-257h-120z" />
    <glyph glyph-name="at" unicode="@" horiz-adv-x="2103" 
d="M159 590q0 408 252 653q253 250 661 250q376 0 624 -225q251 -225 251 -598q0 -247 -101 -397t-263 -150q-91 0 -151 49t-72 141q-153 -188 -366 -188q-162 0 -257 100t-95 268v190q0 168 95 268t257 100q208 0 360 -184l37 161h54v-650q0 -80 37 -123.5t105 -43.5
q117 0 189 122.5t72 336.5q0 332 -223 534q-220 202 -553 202q-360 0 -590 -226q-225 -222 -225 -590q0 -365 225 -590q228 -227 590 -227h52v-88h-52q-405 0 -658 253q-255 255 -255 652zM740 508q0 -129 72.5 -209t196.5 -80q180 0 338 182v370q-167 186 -338 186
q-124 0 -196.5 -80t-72.5 -209v-160z" />
    <glyph glyph-name="A" unicode="A" horiz-adv-x="1365" 
d="M54 0v42l566 1421h124l568 -1421v-42h-120l-162 414h-700l-165 -414h-111zM367 518h625l-311 784z" />
    <glyph glyph-name="B" unicode="B" horiz-adv-x="1355" 
d="M201 0v1463h610q177 0 275 -98.5t98 -280.5q0 -249 -204 -324q258 -59 258 -365q0 -188 -100 -291.5t-277 -103.5h-660zM321 108h518q132 0 205.5 76.5t73.5 214.5q0 139 -73 217t-206 78h-518v-586zM321 798h477q124 0 193.5 73.5t69.5 204.5q0 133 -69.5 205.5
t-199.5 72.5h-471v-556z" />
    <glyph glyph-name="C" unicode="C" horiz-adv-x="1373" 
d="M159 495v472q0 249 146 387.5t405 138.5q226 0 374 -127q152 -128 152 -361v-21h-120v21q0 182 -122 277q-122 99 -284 99q-136 0 -233 -47.5t-147.5 -139t-50.5 -219.5v-488q0 -193 113 -299t318 -106q163 0 284 98q122 95 122 278v20h120v-20q0 -234 -152 -362
q-148 -128 -374 -128q-259 0 -405 139t-146 388z" />
    <glyph glyph-name="D" unicode="D" horiz-adv-x="1407" 
d="M201 0v1463h499q168 0 291.5 -60.5t191 -176.5t67.5 -275v-439q0 -241 -148 -376.5t-402 -135.5h-499zM321 108h379q198 0 313 109t115 293v443q0 184 -115 292.5t-313 108.5h-379v-1246z" />
    <glyph glyph-name="E" unicode="E" horiz-adv-x="1206" 
d="M201 0v1463h887v-109h-767v-562h669v-109h-669v-575h769v-108h-889z" />
    <glyph glyph-name="F" unicode="F" horiz-adv-x="1190" 
d="M201 0v1463h895v-109h-773v-571h674v-108h-674v-675h-122z" />
    <glyph glyph-name="G" unicode="G" horiz-adv-x="1437" 
d="M159 495v472q0 248 150 387t414 139q225 0 378 -125q156 -126 159 -357v-17h-124v17q-3 175 -125 271q-126 99 -290 99q-137 0 -236.5 -48.5t-152.5 -140t-53 -217.5v-480q0 -193 116.5 -303t318.5 -110q294 0 422 281v257h-373v103h497v-723h-74l-30 221
q-144 -253 -448 -253q-257 0 -403 140t-146 387z" />
    <glyph glyph-name="H" unicode="H" horiz-adv-x="1447" 
d="M201 0v1463h120v-674h805v674h121v-1463h-121v681h-805v-681h-120z" />
    <glyph glyph-name="I" unicode="I" horiz-adv-x="522" 
d="M201 0v1463h120v-1463h-120z" />
    <glyph glyph-name="J" unicode="J" horiz-adv-x="1180" 
d="M54 420v58h121v-58q0 -161 94.5 -249.5t258.5 -88.5q161 0 257 91t96 251v1039h122v-1043q0 -216 -128 -334t-347 -118q-222 0 -348 116t-126 336z" />
    <glyph glyph-name="K" unicode="K" horiz-adv-x="1250" 
d="M201 0v1463h120v-674h277l461 674h113v-42l-470 -679l495 -700v-42h-119l-478 681h-279v-681h-120z" />
    <glyph glyph-name="L" unicode="L" horiz-adv-x="1162" 
d="M201 0v1463h120v-1355h788v-108h-908z" />
    <glyph glyph-name="M" unicode="M" horiz-adv-x="1666" 
d="M201 0v1463h116l518 -793l517 793h115v-1463h-120v1254l-474 -734h-81l-475 730v-1250h-116z" />
    <glyph glyph-name="N" unicode="N" horiz-adv-x="1449" 
d="M201 0v1463h112l813 -1238v1238h124v-1463h-114l-815 1234v-1234h-120z" />
    <glyph glyph-name="O" unicode="O" horiz-adv-x="1415" 
d="M159 491v480q0 246 146.5 384t402.5 138q253 0 401.5 -139.5t148.5 -382.5v-480q0 -243 -148.5 -383t-401.5 -140q-256 0 -402.5 138.5t-146.5 384.5zM279 484q0 -187 114.5 -294.5t314.5 -107.5t314 107.5t114 294.5v493q0 187 -114 295.5t-314 108.5t-314.5 -108.5
t-114.5 -295.5v-493z" />
    <glyph glyph-name="P" unicode="P" horiz-adv-x="1294" 
d="M201 0v1463h593q123 0 212 -53t135.5 -150.5t46.5 -229.5q0 -99 -26.5 -179t-77 -135.5t-124.5 -85.5t-166 -30h-473v-600h-120zM321 708h454q134 0 212 86t78 236q0 152 -78 238t-212 86h-454v-646z" />
    <glyph glyph-name="Q" unicode="Q" horiz-adv-x="1421" 
d="M159 491v480q0 246 146.5 384t402.5 138q253 0 401.5 -139.5t148.5 -382.5v-480q0 -277 -188 -418l194 -280v-42h-118l-187 269q-107 -52 -251 -52q-256 0 -402.5 138.5t-146.5 384.5zM279 482q0 -188 114 -294t314.5 -106t314.5 106t114 294v498q0 94 -29.5 169
t-84.5 126t-135 78.5t-179 27.5q-201 0 -315 -106.5t-114 -294.5v-498z" />
    <glyph glyph-name="R" unicode="R" horiz-adv-x="1342" 
d="M201 0v1463h599q194 0 302 -115t108 -318q0 -341 -303 -422l329 -566v-42h-116l-349 598h-450v-598h-120zM321 706h460q145 0 224 84t79 240q0 155 -79 239.5t-224 84.5h-460v-648z" />
    <glyph glyph-name="S" unicode="S" horiz-adv-x="1305" 
d="M106 474h121q0 -135 70 -229q124 -163 373 -163q174 0 272 76t98 199q0 103 -74.5 169t-257.5 136l-162 61q-211 77 -301 158q-88 79 -88 228q0 172 130.5 278t354.5 106q118 0 212.5 -30t163.5 -90t106.5 -154.5t37.5 -217.5h-124q0 199 -115 288q-115 92 -283 92
q-167 0 -265 -72t-98 -191q0 -104 68 -165q66 -61 231 -120l157 -58q217 -79 328 -169q107 -84 107 -243q0 -178 -132.5 -286.5t-371.5 -108.5q-87 0 -167.5 18.5t-152 58.5t-124 98.5t-83.5 143.5t-31 187z" />
    <glyph glyph-name="T" unicode="T" horiz-adv-x="1150" 
d="M54 1354v109h1045v-109h-461v-1354h-122v1354h-462z" />
    <glyph glyph-name="U" unicode="U" horiz-adv-x="1405" 
d="M180 476v987h121v-987q0 -185 107.5 -289.5t295.5 -104.5q185 0 293 104t108 290v987h123v-987q0 -238 -148 -374q-146 -134 -376 -134q-232 0 -379 132q-145 134 -145 376z" />
    <glyph glyph-name="V" unicode="V" horiz-adv-x="1365" 
d="M54 1421v42h115l516 -1302l512 1302h115v-42l-566 -1421h-124z" />
    <glyph glyph-name="W" unicode="W" horiz-adv-x="1678" 
d="M96 1421v42h119l249 -1269l338 821h79l343 -823l247 1271h112v-42l-284 -1421h-117l-343 831l-342 -831h-117z" />
    <glyph glyph-name="X" unicode="X" horiz-adv-x="1278" 
d="M75 0v42l489 702l-474 677v42h121l429 -624l434 624h112v-42l-474 -677l492 -702v-42h-122l-447 648l-447 -648h-113z" />
    <glyph glyph-name="Y" unicode="Y" horiz-adv-x="1260" 
d="M34 1421v42h119l477 -767l488 767h110v-42l-536 -837v-584h-122v580z" />
    <glyph glyph-name="Z" unicode="Z" horiz-adv-x="1190" 
d="M96 0v106l840 1248h-813v109h953v-107l-840 -1248h860v-108h-1000z" />
    <glyph glyph-name="bracketleft" unicode="[" horiz-adv-x="653" 
d="M201 -335v1906h415v-104h-303v-1697h303v-105h-415z" />
    <glyph glyph-name="backslash" unicode="\" horiz-adv-x="951" 
d="M96 1529v42h103l658 -1738v-42h-103z" />
    <glyph glyph-name="bracketright" unicode="]" horiz-adv-x="653" 
d="M38 -230h303v1671h-303v105h415v-1881h-415v105z" />
    <glyph glyph-name="asciicircum" unicode="^" horiz-adv-x="1025" 
d="M113 809v42l349 622h100l349 -622v-42h-96l-303 540l-301 -540h-98z" />
    <glyph glyph-name="underscore" unicode="_" horiz-adv-x="1096" 
d="M-2 -128h1101v-95h-1101v95z" />
    <glyph glyph-name="grave" unicode="`" horiz-adv-x="596" 
d="M130 1483v42h117l223 -293h-115z" />
    <glyph glyph-name="a" unicode="a" 
d="M106 279q0 164 113.5 250.5t328.5 86.5h296v124q0 113 -74.5 178.5t-211.5 65.5q-134 0 -209.5 -64.5t-75.5 -171.5h-110q0 76 26 138.5t75 107.5t124 69.5t170 24.5q191 0 295 -92t104 -250v-746h-74l-37 148q-69 -73 -174 -123.5t-219 -50.5q-101 0 -178.5 34.5
t-123 104.5t-45.5 166zM219 293q0 -103 70 -158t185 -55q190 0 370 173v263h-296q-329 0 -329 -223z" />
    <glyph glyph-name="b" unicode="b" horiz-adv-x="1188" 
d="M180 0v1473h113v-564q153 179 371 179q174 0 275 -105.5t101 -286.5v-329q0 -181 -101 -287t-271 -106q-213 0 -381 187l-36 -161h-71zM293 273q178 -193 359 -193q128 0 201.5 81t73.5 215v311q0 135 -73.5 216t-199.5 81q-182 0 -361 -195v-516z" />
    <glyph glyph-name="c" unicode="c" horiz-adv-x="1100" 
d="M132 369v325q0 178 114 286t312 108q193 0 307.5 -102t114.5 -270v-10h-113v13q0 120 -83 192.5t-226 72.5q-148 0 -230.5 -78t-82.5 -210v-329q0 -132 82 -209.5t231 -77.5q142 0 225.5 74t83.5 195v12h113v-10q0 -169 -114.5 -273t-307.5 -104q-198 0 -312 108
t-114 287z" />
    <glyph glyph-name="d" unicode="d" horiz-adv-x="1188" 
d="M148 367v329q0 181 101 286.5t275 105.5q219 0 373 -179v564h112v-1473h-71l-35 161q-168 -187 -383 -187q-170 0 -271 106t-101 287zM261 376q0 -134 73.5 -215t202.5 -81q181 0 360 193v516q-180 195 -363 195q-125 0 -199 -81t-74 -216v-311z" />
    <glyph glyph-name="e" unicode="e" horiz-adv-x="1114" 
d="M132 367v327q0 178 115 286t315 108q132 0 228.5 -49t146 -137.5t49.5 -205.5v-203h-741v-124q0 -133 84 -211t233 -78q135 0 212 62.5t91 172.5h112q-12 -159 -120.5 -250t-294.5 -91q-100 0 -181 28.5t-135.5 80t-84 124t-29.5 160.5zM245 594h628v102q0 132 -82.5 210
t-232.5 78q-147 0 -230 -78t-83 -210v-102z" />
    <glyph glyph-name="f" unicode="f" horiz-adv-x="678" 
d="M44 963v100h181v67q0 165 83.5 256t245.5 91q19 0 70 -4v-103h-20q-22 3 -38 3q-116 0 -171.5 -56.5t-55.5 -186.5v-67h279v-100h-279v-963h-114v963h-181z" />
    <glyph glyph-name="g" unicode="g" horiz-adv-x="1188" 
d="M148 468v228q0 181 100.5 286.5t271.5 105.5q213 0 381 -185l35 160h73v-1009q0 -202 -110 -307.5t-307 -105.5q-188 0 -302 92.5t-119 250.5h114q4 -107 87.5 -173t219.5 -66q149 0 227 77.5t78 227.5v205q-160 -180 -373 -180q-174 0 -275 105t-101 288zM261 476
q0 -134 73.5 -215t202.5 -81q180 0 360 194v415q-180 195 -363 195q-125 0 -199 -81t-74 -216v-211z" />
    <glyph glyph-name="h" unicode="h" horiz-adv-x="1198" 
d="M180 0v1473h113v-564q159 179 375 179q165 0 264.5 -105t99.5 -291v-692h-113v677q0 149 -72.5 228t-196.5 79q-96 0 -190 -54t-167 -141v-789h-113z" />
    <glyph glyph-name="i" unicode="i" horiz-adv-x="471" 
d="M180 0v1063h113v-1063h-113zM180 1243v230h113v-230h-113z" />
    <glyph glyph-name="j" unicode="j" horiz-adv-x="471" 
d="M-60 -255q18 -2 54 -2q98 0 142 58.5t44 184.5v1077h113v-1077q0 -345 -289 -345q-13 0 -64 4v100zM180 1243v230h113v-230h-113z" />
    <glyph glyph-name="k" unicode="k" horiz-adv-x="1071" 
d="M180 0v1473h113v-879h217l349 469h94v-54l-341 -459l365 -496v-54h-102l-361 493h-221v-493h-113z" />
    <glyph glyph-name="l" unicode="l" horiz-adv-x="471" 
d="M180 0v1473h113v-1473h-113z" />
    <glyph glyph-name="m" unicode="m" horiz-adv-x="1846" 
d="M180 0v1063h71l36 -160q159 185 359 185q108 0 188.5 -55t118.5 -156q174 211 386 211q160 0 250.5 -100t90.5 -286v-702h-113v687q0 142 -68.5 219.5t-182.5 77.5q-176 0 -336 -201q6 -41 6 -127v-656h-113v687q0 72 -18.5 128.5t-51.5 93.5t-79 56t-102 19
q-176 0 -329 -195v-789h-113z" />
    <glyph glyph-name="n" unicode="n" horiz-adv-x="1198" 
d="M180 0v1063h71l36 -160q159 185 379 185q166 0 266 -105t100 -291v-692h-113v677q0 149 -72.5 228t-196.5 79q-198 0 -357 -195v-789h-113z" />
    <glyph glyph-name="o" unicode="o" 
d="M132 369v325q0 177 114 285.5t316 108.5q102 0 184 -29t135.5 -81.5t82 -124.5t28.5 -159v-325q0 -179 -113 -287t-317 -108q-203 0 -316.5 108.5t-113.5 286.5zM245 374q0 -133 84 -213.5t233 -80.5q152 0 234.5 80.5t82.5 213.5v316q0 133 -82.5 213.5t-234.5 80.5
q-148 0 -232.5 -81t-84.5 -213v-316z" />
    <glyph glyph-name="p" unicode="p" horiz-adv-x="1188" 
d="M180 -335v1398h71l36 -160q167 185 381 185q170 0 271 -105.5t101 -286.5v-329q0 -182 -101 -287.5t-275 -105.5q-217 0 -371 181v-490h-113zM293 273q178 -193 359 -193q128 0 201.5 81t73.5 215v311q0 135 -73.5 216t-199.5 81q-182 0 -361 -195v-516z" />
    <glyph glyph-name="q" unicode="q" horiz-adv-x="1188" 
d="M148 367v329q0 181 101 286.5t271 105.5q215 0 383 -185l35 160h71v-1398h-112v490q-155 -181 -373 -181q-115 0 -200 47.5t-130.5 136.5t-45.5 209zM261 376q0 -134 73.5 -215t202.5 -81q181 0 360 193v516q-180 195 -363 195q-125 0 -199 -81t-74 -216v-311z" />
    <glyph glyph-name="r" unicode="r" horiz-adv-x="763" 
d="M180 0v1063h63l36 -160q74 82 179.5 133.5t216.5 51.5h15v-115h-15q-240 0 -382 -177v-796h-113z" />
    <glyph glyph-name="s" unicode="s" 
d="M117 355h113q0 -139 103 -207t247 -68q135 0 214 55t79 144q0 72 -47 111t-162 70l-240 62q-137 37 -199 98.5t-62 173.5q0 133 105.5 213.5t287.5 80.5q192 0 303.5 -96t111.5 -273h-112q0 64 -22.5 114.5t-63.5 83.5t-98 50t-127 17q-130 0 -201.5 -51.5t-71.5 -134.5
q0 -48 18.5 -79.5t59 -54t111.5 -40.5l238 -60q149 -39 216.5 -101t67.5 -176q0 -141 -111 -227t-303 -86q-198 0 -327 97q-128 96 -128 284z" />
    <glyph glyph-name="t" unicode="t" horiz-adv-x="745" 
d="M54 963v100h182v222h113v-222h291v-100h-291v-646q0 -213 201 -213h90v-104h-90q-82 0 -143.5 23.5t-98 66.5t-54.5 99t-18 124v650h-182z" />
    <glyph glyph-name="u" unicode="u" horiz-adv-x="1198" 
d="M167 372v691h112v-676q0 -149 73.5 -228t197.5 -79q198 0 357 193v790h112v-1063h-70l-36 161q-161 -187 -381 -187q-165 0 -265 105.5t-100 292.5z" />
    <glyph glyph-name="v" unicode="v" horiz-adv-x="1046" 
d="M54 1009v54h107l365 -913l361 913h105v-54l-414 -1009h-110z" />
    <glyph glyph-name="w" unicode="w" horiz-adv-x="1469" 
d="M106 1009v54h105l226 -913l255 705h89l255 -705l226 913h102v-54l-257 -1009h-117l-255 683l-255 -683h-117z" />
    <glyph glyph-name="x" unicode="x" horiz-adv-x="1068" 
d="M96 0v54l368 476l-366 479v54h105l331 -445l335 445h98v-54l-361 -475l369 -480v-54h-102l-341 453l-338 -453h-98z" />
    <glyph glyph-name="y" unicode="y" horiz-adv-x="1041" 
d="M54 1009v54h107l365 -913l361 913h105v-54l-551 -1344h-96v44l125 291z" />
    <glyph glyph-name="z" unicode="z" horiz-adv-x="1071" 
d="M117 0v100l675 863h-646v100h781v-100l-674 -863h687v-100h-823z" />
    <glyph glyph-name="braceleft" unicode="{" horiz-adv-x="661" 
d="M75 578v105h57q129 0 129 165v368q0 169 96.5 262t266.5 93v-104q-58 0 -105 -17t-79 -49t-49 -78t-17 -103v-399q0 -155 -113 -191q113 -35 113 -189v-425q0 -115 66.5 -180.5t183.5 -65.5v-105q-170 0 -266.5 93t-96.5 262v394q0 164 -129 164h-57z" />
    <glyph glyph-name="bar" unicode="|" horiz-adv-x="511" 
d="M201 -209v1780h112v-1780h-112z" />
    <glyph glyph-name="braceright" unicode="}" horiz-adv-x="661" 
d="M38 -230q117 0 184 65.5t67 180.5v425q0 154 112 189q-112 35 -112 191v399q0 115 -67 181t-184 66v104q170 0 266.5 -93t96.5 -262v-368q0 -165 129 -165h56v-105h-56q-129 0 -129 -164v-394q0 -112 -44 -192t-125.5 -121.5t-193.5 -41.5v105z" />
    <glyph glyph-name="asciitilde" unicode="~" horiz-adv-x="979" 
d="M104 590q72 107 121.5 149t109.5 42q72 0 143 -56l50 -38q64 -47 118 -47q32 0 63 27.5t95 111.5l71 -54q-68 -107 -119 -150t-112 -43q-70 0 -140 52l-53 40q-67 51 -108 51t-70 -25t-100 -116z" />
    <glyph glyph-name="exclamdown" unicode="&#xa1;" horiz-adv-x="517" 
d="M201 807v256h116v-256h-116zM203 -335v943h112v-943h-112z" />
    <glyph glyph-name="cent" unicode="&#xa2;" horiz-adv-x="1100" 
d="M132 560v323q0 167 101 273t279 120v187h86v-187q176 -11 279 -110.5t103 -258.5v-10h-113v12q0 111 -71.5 181.5t-197.5 81.5v-901q126 11 197.5 83.5t71.5 184.5v13h113v-11q0 -162 -103 -263.5t-279 -112.5v-165h-86v167q-89 6 -160.5 37t-120 82t-74 121t-25.5 153z
M245 558q0 -123 69.5 -199t197.5 -88v901q-128 -12 -197.5 -88.5t-69.5 -198.5v-327z" />
    <glyph glyph-name="sterling" unicode="&#xa3;" horiz-adv-x="1200" 
d="M96 0v104h161v596h-161v104h161v295q0 178 114 286t312 108q196 0 309 -102.5t113 -276.5v-61h-113v61q0 126 -82 200.5t-227 74.5q-148 0 -231 -78t-83 -210v-297h389v-104h-389v-596h736v-104h-1009z" />
    <glyph glyph-name="yen" unicode="&#xa5;" horiz-adv-x="1230" 
d="M34 1421v42h112l470 -763l470 763h111v-42l-464 -736h355v-105h-416v-231h416v-104h-416v-245h-114v245h-416v104h416v231h-416v105h353z" />
    <glyph glyph-name="section" unicode="&#xa7;" horiz-adv-x="1178" 
d="M117 58h108q0 -32 4.5 -60.5t13.5 -54t22.5 -47t31.5 -40t40 -33.5q109 -78 277 -78q139 0 224 61.5t85 177.5q0 50 -36 91q-17 21 -33 35t-42 27t-42.5 20l-61.5 25l-169 63q-206 75 -298 150q-93 80 -93 209q0 163 134 315q-123 81 -123 230q0 145 114 234
q117 94 311 94q102 0 185.5 -25.5t144.5 -75.5t94.5 -127.5t33.5 -176.5h-111q0 155 -102 225q-101 76 -249 76q-85 0 -153.5 -25t-111 -76.5t-42.5 -120.5q0 -92 72 -140q37 -25 66 -39.5t84 -35.5l167 -65q203 -78 299 -155q92 -73 92 -198q0 -144 -150 -311
q73 -50 106 -103t33 -134q0 -142 -119 -235q-117 -94 -319 -94q-214 0 -349 108q-138 107 -138 309zM261 616q0 -103 92 -163q50 -31 87 -49t106 -45l273 -108q123 139 123 255q0 100 -98 162q-58 38 -92 53q-78 35 -114 48l-273 104q-104 -128 -104 -257z" />
    <glyph glyph-name="dieresis" unicode="&#xa8;" horiz-adv-x="692" 
d="M102 1243v230h113v-230h-113zM480 1243v230h114v-230h-114z" />
    <glyph glyph-name="copyright" unicode="&#xa9;" horiz-adv-x="1818" 
d="M159 731.5q0 320.5 217 540.5q216 221 535 221t534 -221q218 -220 218 -540.5t-218 -543.5q-216 -220 -534 -220t-535 220q-217 223 -217 543.5zM243 731.5q0 -286.5 192 -484.5q190 -197 476 -197q281 0 472 197q194 197 194 484.5t-194 484.5q-190 196 -472 196
q-287 0 -476 -196q-192 -198 -192 -484.5zM548 633v198q0 159 93.5 250t265.5 91q159 0 255 -85.5t96 -229.5v-9h-92v9q0 104 -71.5 166.5t-189.5 62.5q-84 0 -144.5 -31t-91.5 -87t-31 -131v-211q0 -56 18 -102t51.5 -78t84 -50t113.5 -18q118 0 189.5 63t71.5 169v6h92v-6
q0 -145 -96 -231t-255 -86q-172 0 -265.5 91t-93.5 249z" />
    <glyph glyph-name="ordfeminine" unicode="&#xaa;" horiz-adv-x="901" 
d="M117 942q0 222 326 222h187v70q0 64 -46.5 102.5t-132.5 38.5q-85 0 -131.5 -37.5t-46.5 -103.5h-116q0 109 76 174t216 65q94 0 161 -28.5t100.5 -79.5t33.5 -122v-495h-69l-33 98q-127 -109 -279 -109q-111 0 -178.5 53.5t-67.5 151.5zM236 953q0 -114 159 -114
q113 0 235 99v140h-185q-209 0 -209 -125z" />
    <glyph glyph-name="guillemotleft" unicode="&#xab;" horiz-adv-x="1106" 
d="M96 562l355 430h101v-45l-320 -385l320 -385v-45h-101zM518 562l355 430h100v-45l-319 -385l319 -385v-45h-100z" />
    <glyph glyph-name="logicalnot" unicode="&#xac;" horiz-adv-x="1094" 
d="M113 833v96h869v-505h-103v409h-766z" />
    <glyph glyph-name="registered" unicode="&#xae;" horiz-adv-x="841" 
d="M71 1134q0 152 100 255q104 104 249 104t246 -104q103 -103 103 -255q0 -154 -103 -257q-99 -102 -246 -102t-249 102q-100 103 -100 257zM121 1134.5q0 -131.5 86 -223.5q87 -90 213.5 -90t212.5 90q88 91 88 223q0 131 -88 222t-213 91q-126 0 -213 -89
q-86 -92 -86 -223.5zM277 951v369h172q59 0 92 -29t33 -83q0 -98 -92 -114l92 -121v-22h-46l-104 139h-96v-139h-51zM328 1134h119q37 0 58 21.5t21 47.5t-21 47.5t-58 21.5h-119v-138z" />
    <glyph glyph-name="macron" unicode="&#xaf;" horiz-adv-x="923" 
d="M184 1310v96h556v-96h-556z" />
    <glyph glyph-name="degree" unicode="&#xb0;" horiz-adv-x="801" 
d="M96 1051v146q0 138 80.5 217t224.5 79t224.5 -78.5t80.5 -217.5v-146q0 -92 -35.5 -158.5t-104.5 -102.5t-165 -36q-144 0 -224.5 79.5t-80.5 217.5zM197 1042q0 -90 53.5 -144t150.5 -54q64 0 111 25.5t70.5 70t23.5 102.5v164q0 90 -53.5 144t-151.5 54
q-97 0 -150.5 -54t-53.5 -144v-164z" />
    <glyph glyph-name="plusminus" unicode="&#xb1;" horiz-adv-x="1096" 
d="M113 44v96h871v-96h-871zM113 683v96h384v370h103v-370h384v-96h-384v-380h-103v380h-384z" />
    <glyph glyph-name="acute" unicode="&#xb4;" horiz-adv-x="596" 
d="M130 1232l223 293h117v-42l-225 -251h-115z" />
    <glyph glyph-name="uni00B5" unicode="&#xb5;" horiz-adv-x="1210" 
d="M180 -335v1398h113v-676q0 -148 72 -227.5t199 -79.5q96 0 190 53.5t165 139.5v790h113v-1063h-69l-38 161q-168 -187 -371 -187q-89 0 -160 42t-101 112v-463h-113z" />
    <glyph glyph-name="paragraph" unicode="&#xb6;" horiz-adv-x="1206" 
d="M96 1107v17q0 108 44 184t126 115.5t196 39.5h545v-1645h-106v1540h-333v-1540h-106v951q-172 0 -269 88.5t-97 249.5z" />
    <glyph glyph-name="periodcentered" unicode="&#xb7;" horiz-adv-x="450" 
d="M165 530v270h122v-270h-122z" />
    <glyph glyph-name="cedilla" unicode="&#xb8;" horiz-adv-x="598" 
d="M144 -293l219 293h115l-217 -335h-117v42z" />
    <glyph glyph-name="ordmasculine" unicode="&#xba;" horiz-adv-x="841" 
d="M96 1053v105q0 146 85 230.5t239 84.5q155 0 240.5 -84t85.5 -231v-105q0 -147 -85.5 -231.5t-240.5 -84.5q-154 0 -239 84.5t-85 231.5zM209 1044q0 -93 56 -150t155 -57q100 0 156.5 58t56.5 149v120q0 63 -24.5 110t-73 73t-115.5 26q-99 0 -155 -57t-56 -152v-120z
" />
    <glyph glyph-name="guillemotright" unicode="&#xbb;" horiz-adv-x="1106" 
d="M134 132v45l319 385l-319 385v45h100l356 -430l-356 -430h-100zM556 132v45l319 385l-319 385v45h100l355 -430l-355 -430h-100z" />
    <glyph glyph-name="questiondown" unicode="&#xbf;" horiz-adv-x="1058" 
d="M86 8q0 153 98 251q45 45 79 70.5t98 65.5l115 69v144h114v-188l-160 -97q-62 -36 -102.5 -67t-71 -68t-44 -80.5t-13.5 -99.5q0 -113 84.5 -188t234.5 -75q160 0 254.5 93t94.5 260h108q0 -217 -127 -336q-128 -121 -330 -121q-207 0 -319 106q-113 107 -113 261z
M470 807v256h122v-256h-122z" />
    <glyph glyph-name="Agrave" unicode="&#xc0;" horiz-adv-x="1365" 
d="M54 0v42l566 1421h124l568 -1421v-42h-120l-162 414h-700l-165 -414h-111zM367 518h625l-311 784zM385 1862v45h125l240 -315h-124z" />
    <glyph glyph-name="Aacute" unicode="&#xc1;" horiz-adv-x="1365" 
d="M54 0v42l566 1421h124l568 -1421v-42h-120l-162 414h-700l-165 -414h-111zM367 518h625l-311 784zM635 1592l240 315h126v-45l-243 -270h-123z" />
    <glyph glyph-name="Acircumflex" unicode="&#xc2;" horiz-adv-x="1365" 
d="M54 0v42l566 1421h124l568 -1421v-42h-120l-162 414h-700l-165 -414h-111zM367 518h625l-311 784zM380 1592v46l242 269h118l242 -269v-46h-117l-186 224l-184 -224h-115z" />
    <glyph glyph-name="Atilde" unicode="&#xc3;" horiz-adv-x="1365" 
d="M54 0v42l566 1421h124l568 -1421v-42h-120l-162 414h-700l-165 -414h-111zM305 1663q71 104 120 146t105 42q63 0 140 -55l49 -32q79 -51 118 -51q31 0 60 26t93 109l71 -52q-66 -104 -116 -147t-112 -43q-53 0 -135 55l-46 29q-78 56 -113 56q-44 0 -71 -26
q-22 -20 -94 -111zM367 518h625l-311 784z" />
    <glyph glyph-name="Adieresis" unicode="&#xc4;" horiz-adv-x="1365" 
d="M54 0v42l566 1421h124l568 -1421v-42h-120l-162 414h-700l-165 -414h-111zM367 518h625l-311 784zM420 1604v247h119v-247h-119zM825 1604v247h120v-247h-120z" />
    <glyph glyph-name="Aring" unicode="&#xc5;" horiz-adv-x="1365" 
d="M54 0v42l566 1421h124l568 -1421v-42h-120l-162 414h-700l-165 -414h-111zM367 518h625l-311 784zM470 1768q0 89 61.5 152t149.5 63q90 0 153 -63t63 -152q0 -88 -63 -149.5t-153 -61.5q-88 0 -149.5 61.5t-61.5 149.5zM548 1768q0 -55 39 -94.5t94 -39.5q58 0 97 39
t39 95q0 57 -39 96t-97 39q-55 0 -94 -39.5t-39 -95.5z" />
    <glyph glyph-name="AE" unicode="&#xc6;" horiz-adv-x="1992" 
d="M34 0v42l891 1421h949v-109h-767v-562h669v-109h-669v-575h769v-108h-890v414h-583l-261 -414h-108zM468 518h518v821z" />
    <glyph glyph-name="Ccedilla" unicode="&#xc7;" horiz-adv-x="1373" 
d="M159 495v472q0 249 146 387.5t405 138.5q226 0 374 -127q152 -128 152 -361v-21h-120v21q0 182 -122 277q-122 99 -284 99q-136 0 -233 -47.5t-147.5 -139t-50.5 -219.5v-488q0 -193 113 -299t318 -106q163 0 284 98q122 95 122 278v20h120v-20q0 -224 -137.5 -349.5
t-348.5 -138.5l-196 -305h-117v42l198 265q-226 21 -351 157t-125 366z" />
    <glyph glyph-name="Egrave" unicode="&#xc8;" horiz-adv-x="1206" 
d="M201 0v1463h887v-109h-767v-562h669v-109h-669v-575h769v-108h-889zM420 1862v45h126l239 -315h-123z" />
    <glyph glyph-name="Eacute" unicode="&#xc9;" horiz-adv-x="1206" 
d="M201 0v1463h887v-109h-767v-562h669v-109h-669v-575h769v-108h-889zM530 1592l241 315h126v-45l-243 -270h-124z" />
    <glyph glyph-name="Ecircumflex" unicode="&#xca;" horiz-adv-x="1206" 
d="M201 0v1463h887v-109h-767v-562h669v-109h-669v-575h769v-108h-889zM351 1592v46l243 269h116l243 -269v-46h-118l-185 224l-184 -224h-115z" />
    <glyph glyph-name="Edieresis" unicode="&#xcb;" horiz-adv-x="1206" 
d="M201 0v1463h887v-109h-767v-562h669v-109h-669v-575h769v-108h-889zM378 1604v247h119v-247h-119zM781 1604v247h122v-247h-122z" />
    <glyph glyph-name="Igrave" unicode="&#xcc;" horiz-adv-x="522" 
d="M-42 1862v45h126l239 -315h-122zM201 0v1463h120v-1463h-120z" />
    <glyph glyph-name="Iacute" unicode="&#xcd;" horiz-adv-x="522" 
d="M201 0v1463h120v-1463h-120zM203 1592l240 315h125v-45l-243 -270h-122z" />
    <glyph glyph-name="Icircumflex" unicode="&#xce;" horiz-adv-x="522" 
d="M-40 1592v46l243 269h116l243 -269v-46h-117l-186 224l-184 -224h-115zM201 0v1463h120v-1463h-120z" />
    <glyph glyph-name="Idieresis" unicode="&#xcf;" horiz-adv-x="522" 
d="M-2 1604v249h121v-249h-121zM201 0v1463h120v-1463h-120zM403 1604v249h123v-249h-123z" />
    <glyph glyph-name="Eth" unicode="&#xd0;" horiz-adv-x="1453" 
d="M42 681v102h203v680h501q168 0 291.5 -60.5t190.5 -176.5t67 -275v-439q0 -241 -147.5 -376.5t-401.5 -135.5h-501v681h-203zM367 108h379q131 0 228 49.5t148.5 140t51.5 212.5v443q0 184 -115 292.5t-313 108.5h-379v-571h420v-102h-420v-573z" />
    <glyph glyph-name="Ntilde" unicode="&#xd1;" horiz-adv-x="1449" 
d="M201 0v1463h112l813 -1238v1238h124v-1463h-114l-815 1234v-1234h-120zM353 1663q71 104 120 146t105 42q64 0 141 -55l48 -32q79 -51 118 -51q22 0 41.5 12t43.5 39t68 84l71 -52q-45 -70 -79.5 -110t-70.5 -60t-78 -20q-54 0 -135 55l-46 29q-78 56 -114 56
q-43 0 -70 -26q-23 -20 -94 -111z" />
    <glyph glyph-name="Ograve" unicode="&#xd2;" horiz-adv-x="1415" 
d="M159 491v480q0 246 146.5 384t402.5 138q253 0 401.5 -139.5t148.5 -382.5v-480q0 -243 -148.5 -383t-401.5 -140q-256 0 -402.5 138.5t-146.5 384.5zM279 484q0 -187 114.5 -294.5t314.5 -107.5t314 107.5t114 294.5v493q0 187 -114 295.5t-314 108.5t-314.5 -108.5
t-114.5 -295.5v-493zM453 1862v45h125l241 -315h-123z" />
    <glyph glyph-name="Oacute" unicode="&#xd3;" horiz-adv-x="1415" 
d="M159 491v480q0 246 146.5 384t402.5 138q253 0 401.5 -139.5t148.5 -382.5v-480q0 -243 -148.5 -383t-401.5 -140q-256 0 -402.5 138.5t-146.5 384.5zM279 484q0 -187 114.5 -294.5t314.5 -107.5t314 107.5t114 294.5v493q0 187 -114 295.5t-314 108.5t-314.5 -108.5
t-114.5 -295.5v-493zM648 1592l239 315h126v-45l-242 -270h-123z" />
    <glyph glyph-name="Ocircumflex" unicode="&#xd4;" horiz-adv-x="1415" 
d="M159 491v480q0 246 146.5 384t402.5 138q253 0 401.5 -139.5t148.5 -382.5v-480q0 -243 -148.5 -383t-401.5 -140q-256 0 -402.5 138.5t-146.5 384.5zM279 484q0 -187 114.5 -294.5t314.5 -107.5t314 107.5t114 294.5v493q0 187 -114 295.5t-314 108.5t-314.5 -108.5
t-114.5 -295.5v-493zM407 1592v46l243 269h117l242 -269v-46h-118l-185 224l-184 -224h-115z" />
    <glyph glyph-name="Otilde" unicode="&#xd5;" horiz-adv-x="1415" 
d="M159 491v480q0 246 146.5 384t402.5 138q253 0 401.5 -139.5t148.5 -382.5v-480q0 -243 -148.5 -383t-401.5 -140q-256 0 -402.5 138.5t-146.5 384.5zM279 484q0 -187 114.5 -294.5t314.5 -107.5t314 107.5t114 294.5v493q0 187 -114 295.5t-314 108.5t-314.5 -108.5
t-114.5 -295.5v-493zM339 1663q70 104 119 146t106 42q63 0 140 -55l48 -32q79 -51 119 -51q31 0 60 26t93 109l70 -52q-65 -104 -115.5 -147t-111.5 -43q-54 0 -136 55l-46 29q-77 56 -113 56q-44 0 -70 -26q-26 -23 -95 -111z" />
    <glyph glyph-name="Odieresis" unicode="&#xd6;" horiz-adv-x="1415" 
d="M159 491v480q0 246 146.5 384t402.5 138q253 0 401.5 -139.5t148.5 -382.5v-480q0 -243 -148.5 -383t-401.5 -140q-256 0 -402.5 138.5t-146.5 384.5zM279 484q0 -187 114.5 -294.5t314.5 -107.5t314 107.5t114 294.5v493q0 187 -114 295.5t-314 108.5t-314.5 -108.5
t-114.5 -295.5v-493zM449 1604v247h119v-247h-119zM855 1604v247h118v-247h-118z" />
    <glyph glyph-name="Oslash" unicode="&#xd8;" horiz-adv-x="1415" 
d="M159 491v480q0 246 146.5 384t402.5 138q123 0 225 -34l84 212h92v-42l-83 -212q232 -134 232 -446v-480q0 -243 -148.5 -383t-401.5 -140q-126 0 -232 36l-83 -213h-92v42l84 215q-226 135 -226 443zM279 484q0 -211 149 -323l463 1191q-90 29 -183 29
q-200 0 -314.5 -108.5t-114.5 -295.5v-493zM518 113q84 -31 190 -31q200 0 314 107.5t114 294.5v493q0 219 -154 327z" />
    <glyph glyph-name="Ugrave" unicode="&#xd9;" horiz-adv-x="1405" 
d="M180 476v987h121v-987q0 -185 107.5 -289.5t295.5 -104.5q185 0 293 104t108 290v987h123v-987q0 -238 -148 -374q-146 -134 -376 -134q-232 0 -379 132q-145 134 -145 376zM489 1862v45h125l241 -315h-124z" />
    <glyph glyph-name="Uacute" unicode="&#xda;" horiz-adv-x="1405" 
d="M180 476v987h121v-987q0 -185 107.5 -289.5t295.5 -104.5q185 0 293 104t108 290v987h123v-987q0 -238 -148 -374q-146 -134 -376 -134q-232 0 -379 132q-145 134 -145 376zM630 1592l241 315h126v-45l-243 -270h-124z" />
    <glyph glyph-name="Ucircumflex" unicode="&#xdb;" horiz-adv-x="1405" 
d="M180 476v987h121v-987q0 -185 107.5 -289.5t295.5 -104.5q185 0 293 104t108 290v987h123v-987q0 -238 -148 -374q-146 -134 -376 -134q-232 0 -379 132q-145 134 -145 376zM403 1592v46l243 269h117l242 -269v-46h-118l-185 224l-184 -224h-115z" />
    <glyph glyph-name="Udieresis" unicode="&#xdc;" horiz-adv-x="1405" 
d="M180 476v987h121v-987q0 -185 107.5 -289.5t295.5 -104.5q185 0 293 104t108 290v987h123v-987q0 -238 -148 -374q-146 -134 -376 -134q-232 0 -379 132q-145 134 -145 376zM445 1604v247h119v-247h-119zM851 1604v247h118v-247h-118z" />
    <glyph glyph-name="Yacute" unicode="&#xdd;" horiz-adv-x="1260" 
d="M34 1421v42h119l477 -767l488 767h110v-42l-536 -837v-584h-122v580zM552 1592l240 315h125v-45l-242 -270h-123z" />
    <glyph glyph-name="Thorn" unicode="&#xde;" horiz-adv-x="1294" 
d="M201 0v1463h120v-295h473q185 0 289.5 -116t104.5 -317q0 -200 -104.5 -315t-289.5 -115h-473v-305h-120zM321 414h454q89 0 154 38.5t100.5 111t35.5 171.5q0 152 -78 238t-212 86h-454v-645z" />
    <glyph glyph-name="germandbls" unicode="&#xdf;" horiz-adv-x="1219" 
d="M180 0v977q0 158 51.5 270.5t151 171t239.5 58.5q193 0 303 -107q111 -105 111 -258q0 -242 -213 -308q117 -28 198 -132q84 -100 84 -246q0 -205 -120 -315.5t-339 -110.5q-72 0 -147 12v99q88 -11 139 -11q172 0 263 86t91 244q0 97 -42 169.5t-121 112.5t-185 40h-122
v99h113q140 0 211 66.5t71 189.5q0 77 -34.5 136.5t-102 94.5t-158.5 35q-158 0 -243.5 -100.5t-85.5 -284.5v-988h-113z" />
    <glyph glyph-name="agrave" unicode="&#xe0;" 
d="M106 279q0 164 113.5 250.5t328.5 86.5h296v124q0 113 -74.5 178.5t-211.5 65.5q-134 0 -209.5 -64.5t-75.5 -171.5h-110q0 76 26 138.5t75 107.5t124 69.5t170 24.5q191 0 295 -92t104 -250v-746h-74l-37 148q-69 -73 -174 -123.5t-219 -50.5q-101 0 -178.5 34.5
t-123 104.5t-45.5 166zM219 293q0 -103 70 -158t185 -55q190 0 370 173v263h-296q-329 0 -329 -223zM378 1483v42h117l224 -293h-115z" />
    <glyph glyph-name="aacute" unicode="&#xe1;" 
d="M106 279q0 164 113.5 250.5t328.5 86.5h296v124q0 113 -74.5 178.5t-211.5 65.5q-134 0 -209.5 -64.5t-75.5 -171.5h-110q0 76 26 138.5t75 107.5t124 69.5t170 24.5q191 0 295 -92t104 -250v-746h-74l-37 148q-69 -73 -174 -123.5t-219 -50.5q-101 0 -178.5 34.5
t-123 104.5t-45.5 166zM219 293q0 -103 70 -158t185 -55q190 0 370 173v263h-296q-329 0 -329 -223zM487 1232l223 293h117v-42l-225 -251h-115z" />
    <glyph glyph-name="acircumflex" unicode="&#xe2;" 
d="M106 279q0 164 113.5 250.5t328.5 86.5h296v124q0 113 -74.5 178.5t-211.5 65.5q-134 0 -209.5 -64.5t-75.5 -171.5h-110q0 76 26 138.5t75 107.5t124 69.5t170 24.5q191 0 295 -92t104 -250v-746h-74l-37 148q-69 -73 -174 -123.5t-219 -50.5q-101 0 -178.5 34.5
t-123 104.5t-45.5 166zM219 293q0 -103 70 -158t185 -55q190 0 370 173v263h-296q-329 0 -329 -223zM297 1232v42l225 251h111l226 -251v-42h-109l-174 207l-171 -207h-108z" />
    <glyph glyph-name="atilde" unicode="&#xe3;" 
d="M106 279q0 164 113.5 250.5t328.5 86.5h296v124q0 113 -74.5 178.5t-211.5 65.5q-134 0 -209.5 -64.5t-75.5 -171.5h-110q0 76 26 138.5t75 107.5t124 69.5t170 24.5q191 0 295 -92t104 -250v-746h-74l-37 148q-69 -73 -174 -123.5t-219 -50.5q-101 0 -178.5 34.5
t-123 104.5t-45.5 166zM219 293q0 -103 70 -158t185 -55q190 0 370 173v263h-296q-329 0 -329 -223zM219 1324q69 103 116.5 144t103.5 41q60 0 137 -55l46 -31q74 -50 115 -50q22 0 41 12t42.5 38.5t66.5 83.5l70 -53q-64 -100 -114 -142t-107.5 -42t-133.5 52l-44 30
q-82 54 -111 54q-39 0 -68 -24.5t-92 -109.5z" />
    <glyph glyph-name="adieresis" unicode="&#xe4;" 
d="M106 279q0 164 113.5 250.5t328.5 86.5h296v124q0 113 -74.5 178.5t-211.5 65.5q-134 0 -209.5 -64.5t-75.5 -171.5h-110q0 76 26 138.5t75 107.5t124 69.5t170 24.5q191 0 295 -92t104 -250v-746h-74l-37 148q-69 -73 -174 -123.5t-219 -50.5q-101 0 -178.5 34.5
t-123 104.5t-45.5 166zM219 293q0 -103 70 -158t185 -55q190 0 370 173v263h-296q-329 0 -329 -223zM313 1243v230h113v-230h-113zM692 1243v230h112v-230h-112z" />
    <glyph glyph-name="aring" unicode="&#xe5;" 
d="M106 279q0 164 113.5 250.5t328.5 86.5h296v124q0 113 -74.5 178.5t-211.5 65.5q-134 0 -209.5 -64.5t-75.5 -171.5h-110q0 76 26 138.5t75 107.5t124 69.5t170 24.5q191 0 295 -92t104 -250v-746h-74l-37 148q-69 -73 -174 -123.5t-219 -50.5q-101 0 -178.5 34.5
t-123 104.5t-45.5 166zM219 293q0 -103 70 -158t185 -55q190 0 370 173v263h-296q-329 0 -329 -223zM369 1393q0 84 58 142.5t139 58.5q83 0 142 -58.5t59 -142.5q0 -81 -59 -138.5t-142 -57.5q-81 0 -139 57.5t-58 138.5zM441 1393q0 -33 17 -61.5t46 -45t62 -16.5
q52 0 90 36.5t38 86.5q0 52 -38 90t-90 38q-51 0 -88 -38t-37 -90z" />
    <glyph glyph-name="ae" unicode="&#xe6;" horiz-adv-x="1827" 
d="M106 273q0 162 113.5 246.5t328.5 84.5h296v133q0 114 -73.5 178.5t-212.5 64.5q-134 0 -209.5 -63t-75.5 -169h-110q0 76 26 138.5t75 107.5t124 69.5t170 24.5q273 0 351 -197q96 197 365 197q198 0 311 -107t113 -285v-190h-741v-134q0 -133 84 -210.5t233 -77.5
q135 0 212 60.5t91 170.5h113q-14 -160 -122 -250.5t-294 -90.5q-152 0 -253.5 61.5t-145.5 167.5q-47 -68 -109.5 -118.5t-143.5 -80.5t-169 -30q-156 0 -251.5 78.5t-95.5 220.5zM219 289q0 -102 69 -153.5t186 -51.5q125 0 224 64q94 61 146 153v205h-296
q-329 0 -329 -217zM957 604h628v88q0 132 -82.5 210t-232.5 78q-147 0 -230 -78.5t-83 -209.5v-88z" />
    <glyph glyph-name="ccedilla" unicode="&#xe7;" horiz-adv-x="1100" 
d="M132 369v325q0 178 114 286t312 108q193 0 307.5 -102t114.5 -270v-10h-113v13q0 120 -83 192.5t-226 72.5q-148 0 -230.5 -78t-82.5 -210v-329q0 -132 82 -209.5t231 -77.5q142 0 225.5 74t83.5 195v12h113v-10q0 -153 -96 -253.5t-260 -117.5l-202 -315h-117v42
l203 270q-176 13 -276 118.5t-100 273.5z" />
    <glyph glyph-name="egrave" unicode="&#xe8;" horiz-adv-x="1114" 
d="M132 367v327q0 178 115 286t315 108q132 0 228.5 -49t146 -137.5t49.5 -205.5v-203h-741v-124q0 -133 84 -211t233 -78q135 0 212 62.5t91 172.5h112q-12 -159 -120.5 -250t-294.5 -91q-100 0 -181 28.5t-135.5 80t-84 124t-29.5 160.5zM245 594h628v102q0 132 -82.5 210
t-232.5 78q-147 0 -230 -78t-83 -210v-102zM337 1483v42h116l224 -293h-115z" />
    <glyph glyph-name="eacute" unicode="&#xe9;" horiz-adv-x="1114" 
d="M132 367v327q0 178 115 286t315 108q132 0 228.5 -49t146 -137.5t49.5 -205.5v-203h-741v-124q0 -133 84 -211t233 -78q135 0 212 62.5t91 172.5h112q-12 -159 -120.5 -250t-294.5 -91q-100 0 -181 28.5t-135.5 80t-84 124t-29.5 160.5zM245 594h628v102q0 132 -82.5 210
t-232.5 78q-147 0 -230 -78t-83 -210v-102zM441 1232l223 293h117v-42l-225 -251h-115z" />
    <glyph glyph-name="ecircumflex" unicode="&#xea;" horiz-adv-x="1114" 
d="M132 367v327q0 178 115 286t315 108q132 0 228.5 -49t146 -137.5t49.5 -205.5v-203h-741v-124q0 -133 84 -211t233 -78q135 0 212 62.5t91 172.5h112q-12 -159 -120.5 -250t-294.5 -91q-100 0 -181 28.5t-135.5 80t-84 124t-29.5 160.5zM245 594h628v102q0 132 -82.5 210
t-232.5 78q-147 0 -230 -78t-83 -210v-102zM289 1232v42l225 251h110l227 -251v-42h-109l-174 207l-171 -207h-108z" />
    <glyph glyph-name="edieresis" unicode="&#xeb;" horiz-adv-x="1114" 
d="M132 367v327q0 178 115 286t315 108q132 0 228.5 -49t146 -137.5t49.5 -205.5v-203h-741v-124q0 -133 84 -211t233 -78q135 0 212 62.5t91 172.5h112q-12 -159 -120.5 -250t-294.5 -91q-100 0 -181 28.5t-135.5 80t-84 124t-29.5 160.5zM245 594h628v102q0 132 -82.5 210
t-232.5 78q-147 0 -230 -78t-83 -210v-102zM315 1243v230h113v-230h-113zM694 1243v230h113v-230h-113z" />
    <glyph glyph-name="igrave" unicode="&#xec;" horiz-adv-x="469" 
d="M-48 1479v42h117l224 -293h-116zM180 0v1063h113v-1063h-113z" />
    <glyph glyph-name="iacute" unicode="&#xed;" horiz-adv-x="469" 
d="M180 0v1063h113v-1063h-113zM180 1232l223 293h117v-42l-225 -251h-115z" />
    <glyph glyph-name="icircumflex" unicode="&#xee;" horiz-adv-x="469" 
d="M-44 1232v42l226 251h111l225 -251v-42h-109l-173 207l-172 -207h-108zM180 0v1063h113v-1063h-113z" />
    <glyph glyph-name="idieresis" unicode="&#xef;" horiz-adv-x="469" 
d="M-8 1243v230h112v-230h-112zM180 0v1063h113v-1063h-113zM369 1243v230h113v-230h-113z" />
    <glyph glyph-name="eth" unicode="&#xf0;" horiz-adv-x="1152" 
d="M140 369v197q0 183 101 289t275 106q186 0 351 -165q-35 134 -188 328h-374v100h293l-157 195v54h102l194 -249h251v-100h-173q98 -131 144 -235q44 -95 44 -241v-281q0 -178 -116.5 -285.5t-316.5 -107.5t-315 108t-115 287zM253 374q0 -133 83 -213.5t234 -80.5
q149 0 234 80.5t85 213.5v294q-171 187 -346 187q-135 0 -212.5 -82t-77.5 -215v-184z" />
    <glyph glyph-name="ntilde" unicode="&#xf1;" horiz-adv-x="1198" 
d="M180 0v1063h71l36 -160q159 185 379 185q166 0 266 -105t100 -291v-692h-113v677q0 149 -72.5 228t-196.5 79q-198 0 -357 -195v-789h-113zM249 1324q69 103 116.5 144t102.5 41q61 0 138 -55l46 -31q74 -50 115 -50q21 0 40.5 12t42.5 38.5t67 83.5l69 -53
q-63 -100 -113 -142t-108 -42q-59 0 -135 52l-44 30q-81 54 -110 54q-27 0 -47.5 -11t-45 -38t-68.5 -85z" />
    <glyph glyph-name="ograve" unicode="&#xf2;" 
d="M132 369v325q0 177 114 285.5t316 108.5q102 0 184 -29t135.5 -81.5t82 -124.5t28.5 -159v-325q0 -179 -113 -287t-317 -108q-203 0 -316.5 108.5t-113.5 286.5zM245 374q0 -133 84 -213.5t233 -80.5q152 0 234.5 80.5t82.5 213.5v316q0 133 -82.5 213.5t-234.5 80.5
q-148 0 -232.5 -81t-84.5 -213v-316zM315 1483v42h117l224 -293h-115z" />
    <glyph glyph-name="oacute" unicode="&#xf3;" 
d="M132 369v325q0 177 114 285.5t316 108.5q102 0 184 -29t135.5 -81.5t82 -124.5t28.5 -159v-325q0 -179 -113 -287t-317 -108q-203 0 -316.5 108.5t-113.5 286.5zM245 374q0 -133 84 -213.5t233 -80.5q152 0 234.5 80.5t82.5 213.5v316q0 133 -82.5 213.5t-234.5 80.5
q-148 0 -232.5 -81t-84.5 -213v-316zM480 1232l224 293h117v-42l-225 -251h-116z" />
    <glyph glyph-name="ocircumflex" unicode="&#xf4;" 
d="M132 369v325q0 177 114 285.5t316 108.5q102 0 184 -29t135.5 -81.5t82 -124.5t28.5 -159v-325q0 -179 -113 -287t-317 -108q-203 0 -316.5 108.5t-113.5 286.5zM245 374q0 -133 84 -213.5t233 -80.5q152 0 234.5 80.5t82.5 213.5v316q0 133 -82.5 213.5t-234.5 80.5
q-148 0 -232.5 -81t-84.5 -213v-316zM279 1232v42l227 251h110l226 -251v-42h-109l-173 207l-171 -207h-110z" />
    <glyph glyph-name="otilde" unicode="&#xf5;" 
d="M132 369v325q0 177 114 285.5t316 108.5q102 0 184 -29t135.5 -81.5t82 -124.5t28.5 -159v-325q0 -179 -113 -287t-317 -108q-203 0 -316.5 108.5t-113.5 286.5zM194 1324q46 69 80.5 108t68 58t71.5 19q61 0 138 -55l46 -31q74 -50 114 -50q31 0 59.5 26t91.5 108
l68 -53q-63 -100 -113 -142t-108 -42t-134 52l-44 30q-81 54 -110 54q-38 0 -68 -25t-93 -109zM245 374q0 -133 84 -213.5t233 -80.5q152 0 234.5 80.5t82.5 213.5v316q0 133 -82.5 213.5t-234.5 80.5q-148 0 -232.5 -81t-84.5 -213v-316z" />
    <glyph glyph-name="odieresis" unicode="&#xf6;" 
d="M132 369v325q0 177 114 285.5t316 108.5q102 0 184 -29t135.5 -81.5t82 -124.5t28.5 -159v-325q0 -179 -113 -287t-317 -108q-203 0 -316.5 108.5t-113.5 286.5zM245 374q0 -133 84 -213.5t233 -80.5q152 0 234.5 80.5t82.5 213.5v316q0 133 -82.5 213.5t-234.5 80.5
q-148 0 -232.5 -81t-84.5 -213v-316zM313 1243v230h113v-230h-113zM692 1243v230h112v-230h-112z" />
    <glyph glyph-name="divide" unicode="&#xf7;" horiz-adv-x="1096" 
d="M113 606v96h871v-96h-871zM484 201v238h128v-238h-128zM484 869v238h128v-238h-128z" />
    <glyph glyph-name="oslash" unicode="&#xf8;" 
d="M132 -209l135 271q-135 105 -135 307v325q0 177 114 285.5t316 108.5q108 0 192 -33l147 294h91v-54l-144 -290q144 -111 144 -311v-325q0 -179 -113 -287t-317 -108q-103 0 -205 36l-136 -273h-89v54zM245 374q0 -134 76 -211l389 796q-65 25 -148 25q-148 0 -232.5 -81
t-84.5 -213v-316zM401 108q71 -28 161 -28q152 0 234.5 80.5t82.5 213.5v316q0 139 -85 219z" />
    <glyph glyph-name="ugrave" unicode="&#xf9;" horiz-adv-x="1198" 
d="M167 372v691h112v-676q0 -149 73.5 -228t197.5 -79q198 0 357 193v790h112v-1063h-70l-36 161q-161 -187 -381 -187q-165 0 -265 105.5t-100 292.5zM378 1483v42h117l224 -293h-115z" />
    <glyph glyph-name="uacute" unicode="&#xfa;" horiz-adv-x="1198" 
d="M167 372v691h112v-676q0 -149 73.5 -228t197.5 -79q198 0 357 193v790h112v-1063h-70l-36 161q-161 -187 -381 -187q-165 0 -265 105.5t-100 292.5zM487 1232l223 293h117v-42l-225 -251h-115z" />
    <glyph glyph-name="ucircumflex" unicode="&#xfb;" horiz-adv-x="1198" 
d="M167 372v691h112v-676q0 -149 73.5 -228t197.5 -79q198 0 357 193v790h112v-1063h-70l-36 161q-161 -187 -381 -187q-165 0 -265 105.5t-100 292.5zM317 1232v42l226 251h111l225 -251v-42h-108l-173 207l-172 -207h-109z" />
    <glyph glyph-name="udieresis" unicode="&#xfc;" horiz-adv-x="1198" 
d="M167 372v691h112v-676q0 -149 73.5 -228t197.5 -79q198 0 357 193v790h112v-1063h-70l-36 161q-161 -187 -381 -187q-165 0 -265 105.5t-100 292.5zM351 1243v230h113v-230h-113zM729 1243v230h113v-230h-113z" />
    <glyph glyph-name="yacute" unicode="&#xfd;" horiz-adv-x="1041" 
d="M54 1009v54h107l365 -913l361 913h105v-54l-551 -1344h-96v44l125 291zM424 1232l224 293h117v-42l-226 -251h-115z" />
    <glyph glyph-name="thorn" unicode="&#xfe;" horiz-adv-x="1188" 
d="M180 -335v1808h113v-566q158 181 375 181q170 0 271 -105.5t101 -286.5v-329q0 -182 -101 -287.5t-275 -105.5q-217 0 -371 181v-490h-113zM293 273q178 -193 359 -193q128 0 201.5 81t73.5 215v311q0 135 -73.5 216t-199.5 81q-182 0 -361 -195v-516z" />
    <glyph glyph-name="ydieresis" unicode="&#xff;" horiz-adv-x="1041" 
d="M54 1009v54h107l365 -913l361 913h105v-54l-551 -1344h-96v44l125 291zM273 1243v230h114v-230h-114zM652 1243v230h113v-230h-113z" />
    <glyph glyph-name="dotlessi" unicode="&#x131;" horiz-adv-x="471" 
d="M180 0v1063h113v-1063h-113z" />
    <glyph glyph-name="OE" unicode="&#x152;" horiz-adv-x="2143" 
d="M159 491v480q0 246 146.5 384t402.5 138q151 0 262 -63t166 -180v213h889v-109h-767v-562h668v-109h-668v-575h769v-108h-891v213q-55 -118 -166 -181.5t-262 -63.5q-256 0 -402.5 138.5t-146.5 384.5zM279 484q0 -187 114.5 -294.5t314.5 -107.5q128 0 225.5 48.5
t150 137t52.5 204.5v512q0 181 -116 289t-312 108q-200 0 -314.5 -108.5t-114.5 -295.5v-493z" />
    <glyph glyph-name="oe" unicode="&#x153;" horiz-adv-x="1862" 
d="M132 369v325q0 177 114 285.5t316 108.5q284 0 374 -215q97 215 376 215q198 0 310 -106.5t112 -285.5v-203h-742v-130q2 -129 87 -206t233 -77q133 0 210 62.5t91 172.5h113q-14 -159 -122 -250t-292 -91q-140 0 -236.5 55.5t-139.5 156.5q-91 -212 -374 -212
q-203 0 -316.5 108.5t-113.5 286.5zM245 374q0 -133 84 -213.5t233 -80.5q150 0 233.5 80t83.5 212v322q0 130 -84 210t-233 80q-148 0 -232.5 -81t-84.5 -213v-316zM992 594h629v102q0 132 -82 210t-231 78t-232.5 -78t-83.5 -210v-102z" />
    <glyph glyph-name="Ydieresis" unicode="&#x178;" horiz-adv-x="1260" 
d="M34 1421v42h119l477 -767l488 767h110v-42l-536 -837v-584h-122v580zM369 1611v246h120v-246h-120zM773 1611v246h122v-246h-122z" />
    <glyph glyph-name="florin" unicode="&#x192;" horiz-adv-x="785" 
d="M-54 -253l8 -2h36q219 0 237 225l78 993h-175v100h183l8 95q28 319 339 319q10 0 27.5 -1t30.5 -2l13 -1v-103l-10.5 0.5t-25 1.5t-25.5 1q-217 0 -235 -217l-9 -93h286v-100h-294l-77 -995q-25 -327 -323 -327q-39 0 -72 4v102z" />
    <glyph glyph-name="circumflex" unicode="&#x2c6;" horiz-adv-x="839" 
d="M138 1232v42l225 251h111l226 -251v-42h-108l-174 207l-171 -207h-109z" />
    <glyph glyph-name="caron" unicode="&#x2c7;" horiz-adv-x="839" 
d="M138 1483v42h109l171 -207l174 207h108v-42l-226 -251h-111z" />
    <glyph glyph-name="breve" unicode="&#x2d8;" horiz-adv-x="833" 
d="M100 1479v25h103v-23q0 -93 57 -144.5t158 -51.5t158 51.5t57 144.5v23h102v-25q0 -132 -86.5 -209.5t-230.5 -77.5q-145 0 -231.5 77.5t-86.5 209.5z" />
    <glyph glyph-name="dotaccent" unicode="&#x2d9;" horiz-adv-x="385" 
d="M138 1264v229h113v-229h-113z" />
    <glyph glyph-name="ring" unicode="&#x2da;" horiz-adv-x="701" 
d="M155 1393q0 84 57.5 142.5t138.5 58.5q55 0 101 -26.5t73 -73t27 -101.5q0 -81 -59 -138.5t-142 -57.5q-81 0 -138.5 57.5t-57.5 138.5zM225 1393q0 -50 37.5 -86.5t88.5 -36.5q52 0 89.5 36.5t37.5 86.5q0 53 -36.5 90.5t-90.5 37.5q-33 0 -62 -17.5t-46.5 -47
t-17.5 -63.5z" />
    <glyph glyph-name="ogonek" unicode="&#x2db;" horiz-adv-x="568" 
d="M111 -180q0 87 110 180h104q-122 -90 -122 -157q0 -90 138 -90h94v-88h-118q-96 0 -151 41t-55 114z" />
    <glyph glyph-name="tilde" unicode="&#x2dc;" horiz-adv-x="1018" 
d="M140 1324q69 103 116.5 144t102.5 41q61 0 138 -55l46 -31q74 -50 115 -50q31 0 59.5 26t91.5 108l68 -53q-32 -51 -59 -85t-54 -56.5t-53 -32.5t-55 -10q-58 0 -134 52l-44 30q-81 54 -111 54q-38 0 -67 -24.5t-93 -109.5z" />
    <glyph glyph-name="hungarumlaut" unicode="&#x2dd;" horiz-adv-x="951" 
d="M130 1232l223 293h117v-42l-225 -251h-115zM482 1232l224 293h117v-42l-225 -251h-116z" />
    <glyph glyph-name="Omega" unicode="&#x3a9;" horiz-adv-x="1499" 
d="M167 0v108h297q-263 110 -263 440v423q0 122 38 220t108.5 164.5t173 102t229.5 35.5q253 0 401 -139.5t148 -382.5v-423q0 -330 -263 -440h297v-108h-476v113q150 25 235.5 141t85.5 287v434q0 188 -114.5 297t-314 109t-314 -109t-114.5 -297v-434q0 -171 86 -287
t237 -141v-113h-477z" />
    <glyph glyph-name="pi" unicode="&#x3c0;" horiz-adv-x="1367" 
d="M75 963v100h1218v-100h-215v-963h-113v963h-562v-963h-112v963h-216z" />
    <glyph glyph-name="afii10023" unicode="&#x401;" horiz-adv-x="1206" 
d="M201 0v1463h887v-109h-767v-562h669v-109h-669v-575h769v-108h-889zM378 1604v247h119v-247h-119zM781 1604v247h122v-247h-122z" />
    <glyph glyph-name="afii10051" unicode="&#x402;" horiz-adv-x="1539" 
d="M54 1354v109h1026v-109h-528v-541q195 56 379 56q235 0 368.5 -116.5t133.5 -317.5q0 -203 -109.5 -319t-308.5 -116h-116v108h112q142 0 220.5 87t78.5 237q0 154 -108 236q-108 88 -285 88q-179 0 -365 -56v-700h-122v1354h-376z" />
    <glyph glyph-name="afii10052" unicode="&#x403;" horiz-adv-x="1170" 
d="M201 0v1463h875v-109h-755v-1354h-120zM524 1592l241 315h124v-45l-241 -270h-124z" />
    <glyph glyph-name="afii10053" unicode="&#x404;" horiz-adv-x="1373" 
d="M159 484v493q0 244 146 380t405 136q224 0 374 -125q152 -122 152 -353v-21h-120v21q0 175 -122 270q-118 96 -284 96q-205 0 -318 -104t-113 -291v-197h630v-108h-630v-205q0 -93 29 -166.5t84 -124t135.5 -77t182.5 -26.5q166 0 284 95q122 96 122 270v21h120v-21
q0 -231 -152 -355q-151 -124 -374 -124q-259 0 -405 136.5t-146 379.5z" />
    <glyph glyph-name="afii10054" unicode="&#x405;" horiz-adv-x="1305" 
d="M106 474h121q0 -135 70 -229q124 -163 373 -163q174 0 272 76t98 199q0 103 -74.5 169t-257.5 136l-162 61q-211 77 -301 158q-88 79 -88 228q0 172 130.5 278t354.5 106q118 0 212.5 -30t163.5 -90t106.5 -154.5t37.5 -217.5h-124q0 199 -115 288q-115 92 -283 92
q-167 0 -265 -72t-98 -191q0 -104 68 -165q66 -61 231 -120l157 -58q217 -79 328 -169q107 -84 107 -243q0 -178 -132.5 -286.5t-371.5 -108.5q-87 0 -167.5 18.5t-152 58.5t-124 98.5t-83.5 143.5t-31 187z" />
    <glyph glyph-name="afii10055" unicode="&#x406;" horiz-adv-x="522" 
d="M201 0v1463h120v-1463h-120z" />
    <glyph glyph-name="afii10056" unicode="&#x407;" horiz-adv-x="522" 
d="M0 1604v247h119v-247h-119zM201 0v1463h120v-1463h-120zM405 1604v247h119v-247h-119z" />
    <glyph glyph-name="afii10057" unicode="&#x408;" horiz-adv-x="1180" 
d="M54 420v58h121v-58q0 -161 94.5 -249.5t258.5 -88.5q161 0 257 91t96 251v1039h122v-1043q0 -216 -128 -334t-347 -118q-222 0 -348 116t-126 336z" />
    <glyph glyph-name="afii10058" unicode="&#x409;" horiz-adv-x="2182" 
d="M44 0v113q167 0 233 136q66 133 66 499v715h867v-600h459q193 0 300.5 -115t107.5 -316q0 -133 -48 -230t-140 -149.5t-220 -52.5h-581v1354h-626v-604q0 -408 -99 -583q-97 -167 -319 -167zM1210 108h457q135 0 210.5 86.5t75.5 237.5t-75.5 236.5t-210.5 85.5h-457
v-646z" />
    <glyph glyph-name="afii10059" unicode="&#x40a;" horiz-adv-x="2220" 
d="M211 0v1463h124v-600h791v600h121v-600h459q193 0 300.5 -115t107.5 -316t-107 -316.5t-301 -115.5h-580v754h-791v-754h-124zM1247 108h457q136 0 211.5 86.5t75.5 237.5t-75.5 236.5t-211.5 85.5h-457v-646z" />
    <glyph glyph-name="afii10060" unicode="&#x40b;" horiz-adv-x="1570" 
d="M54 1354v109h1026v-109h-528v-543q155 58 361 58q518 0 518 -437v-432h-121v420q0 336 -405 336q-199 0 -353 -60v-696h-122v1354h-376z" />
    <glyph glyph-name="afii10061" unicode="&#x40c;" horiz-adv-x="1250" 
d="M201 0v1463h120v-674h277l461 674h113v-42l-470 -679l495 -700v-42h-119l-478 681h-279v-681h-120zM560 1592l240 315h125v-45l-242 -270h-123z" />
    <glyph glyph-name="afii10062" unicode="&#x40e;" horiz-adv-x="1180" 
d="M34 1421v42h112l476 -949l420 949h107v-42l-631 -1421h-107v42l155 340zM265 1834v21h102v-19q0 -93 56.5 -143.5t158.5 -50.5t159 50t57 144v19h103v-21q0 -132 -87.5 -208t-231.5 -76q-145 0 -231 76t-86 208z" />
    <glyph glyph-name="afii10145" unicode="&#x40f;" horiz-adv-x="1430" 
d="M201 0v1463h120v-1350h788v1350h121v-1463h-459v-293h-113v293h-457z" />
    <glyph glyph-name="afii10017" unicode="&#x410;" horiz-adv-x="1365" 
d="M54 0v42l566 1421h124l568 -1421v-42h-120l-162 414h-700l-165 -414h-111zM367 518h625l-311 784z" />
    <glyph glyph-name="afii10018" unicode="&#x411;" horiz-adv-x="1349" 
d="M201 0v1463h948v-109h-828v-491h516q186 0 290.5 -115t104.5 -316q0 -200 -104.5 -316t-290.5 -116h-636zM321 108h498q88 0 153.5 38.5t101 112t35.5 173.5q0 150 -78 236t-212 86h-498v-646z" />
    <glyph glyph-name="afii10019" unicode="&#x412;" horiz-adv-x="1355" 
d="M201 0v1463h610q177 0 275 -98.5t98 -280.5q0 -249 -204 -324q258 -59 258 -365q0 -188 -100 -291.5t-277 -103.5h-660zM321 108h518q132 0 205.5 76.5t73.5 214.5q0 139 -73 217t-206 78h-518v-586zM321 798h477q124 0 193.5 73.5t69.5 204.5q0 133 -69.5 205.5
t-199.5 72.5h-471v-556z" />
    <glyph glyph-name="afii10020" unicode="&#x413;" horiz-adv-x="1170" 
d="M201 0v1463h875v-109h-755v-1354h-120z" />
    <glyph glyph-name="afii10021" unicode="&#x414;" horiz-adv-x="1481" 
d="M64 108h107q55 70 102 159q21 39 39.5 96t34.5 131t25.5 168.5t9.5 192.5v608h828v-1355h187v-413h-112v305h-1108v-305h-113v413zM305 108h781v1246h-591v-499q0 -295 -50 -452q-47 -156 -140 -295z" />
    <glyph glyph-name="afii10022" unicode="&#x415;" horiz-adv-x="1206" 
d="M201 0v1463h887v-109h-767v-562h669v-109h-669v-575h769v-108h-889z" />
    <glyph glyph-name="afii10024" unicode="&#x416;" horiz-adv-x="1818" 
d="M75 0v42l416 698l-389 681v42h111l381 -674h254v674h123v-674h255l380 674h111v-42l-388 -681l415 -698v-42h-121l-397 681h-255v-681h-123v681h-254l-397 -681h-122z" />
    <glyph glyph-name="afii10025" unicode="&#x417;" horiz-adv-x="1265" 
d="M117 458h121q1 -177 114.5 -274.5t301.5 -97.5q177 0 275.5 85t98.5 240q0 133 -91 211t-250 78h-213v109h213q142 0 220.5 67.5t78.5 197.5q0 134 -93 218.5t-253 84.5q-113 0 -196 -42t-130 -126.5t-47 -203.5h-123q1 155 63.5 266t173 166.5t259.5 55.5
q217 0 343 -111.5t126 -291.5q0 -130 -65 -215t-179 -117q129 -28 206.5 -119t77.5 -230q0 -204 -132.5 -322.5t-366.5 -118.5q-237 0 -383 128q-147 128 -150 362z" />
    <glyph glyph-name="afii10026" unicode="&#x418;" horiz-adv-x="1451" 
d="M201 0v1463h120v-1250l817 1250h114v-1463h-122v1250l-817 -1250h-112z" />
    <glyph glyph-name="afii10027" unicode="&#x419;" horiz-adv-x="1451" 
d="M201 0v1463h120v-1250l817 1250h114v-1463h-122v1250l-817 -1250h-112zM407 1834v21h103v-19q0 -93 56.5 -143.5t158.5 -50.5t158.5 50t56.5 144v19h102v-21q0 -132 -86.5 -208t-230.5 -76q-95 0 -167 34t-111.5 98t-39.5 152z" />
    <glyph glyph-name="afii10028" unicode="&#x41a;" horiz-adv-x="1250" 
d="M201 0v1463h120v-674h277l461 674h113v-42l-470 -679l495 -700v-42h-119l-478 681h-279v-681h-120z" />
    <glyph glyph-name="afii10029" unicode="&#x41b;" horiz-adv-x="1409" 
d="M44 0v113q167 0 233 136q66 133 66 499v715h867v-1463h-122v1354h-626v-604q0 -408 -99 -583q-97 -167 -319 -167z" />
    <glyph glyph-name="afii10030" unicode="&#x41c;" horiz-adv-x="1666" 
d="M201 0v1463h116l518 -793l517 793h115v-1463h-120v1254l-474 -734h-81l-475 730v-1250h-116z" />
    <glyph glyph-name="afii10031" unicode="&#x41d;" horiz-adv-x="1447" 
d="M201 0v1463h120v-674h805v674h121v-1463h-121v681h-805v-681h-120z" />
    <glyph glyph-name="afii10032" unicode="&#x41e;" horiz-adv-x="1415" 
d="M159 491v480q0 246 146.5 384t402.5 138q253 0 401.5 -139.5t148.5 -382.5v-480q0 -243 -148.5 -383t-401.5 -140q-256 0 -402.5 138.5t-146.5 384.5zM279 484q0 -187 114.5 -294.5t314.5 -107.5t314 107.5t114 294.5v493q0 187 -114 295.5t-314 108.5t-314.5 -108.5
t-114.5 -295.5v-493z" />
    <glyph glyph-name="afii10033" unicode="&#x41f;" horiz-adv-x="1434" 
d="M201 0v1463h1033v-1463h-120v1354h-793v-1354h-120z" />
    <glyph glyph-name="afii10034" unicode="&#x420;" horiz-adv-x="1294" 
d="M201 0v1463h593q123 0 212 -53t135.5 -150.5t46.5 -229.5q0 -99 -26.5 -179t-77 -135.5t-124.5 -85.5t-166 -30h-473v-600h-120zM321 708h454q134 0 212 86t78 236q0 152 -78 238t-212 86h-454v-646z" />
    <glyph glyph-name="afii10035" unicode="&#x421;" horiz-adv-x="1373" 
d="M159 495v472q0 249 146 387.5t405 138.5q226 0 374 -127q152 -128 152 -361v-21h-120v21q0 182 -122 277q-122 99 -284 99q-136 0 -233 -47.5t-147.5 -139t-50.5 -219.5v-488q0 -193 113 -299t318 -106q163 0 284 98q122 95 122 278v20h120v-20q0 -234 -152 -362
q-148 -128 -374 -128q-259 0 -405 139t-146 388z" />
    <glyph glyph-name="afii10036" unicode="&#x422;" horiz-adv-x="1150" 
d="M54 1354v109h1045v-109h-461v-1354h-122v1354h-462z" />
    <glyph glyph-name="afii10037" unicode="&#x423;" horiz-adv-x="1180" 
d="M34 1421v42h112l476 -949l420 949h107v-42l-631 -1421h-107v42l155 340z" />
    <glyph glyph-name="afii10038" unicode="&#x424;" horiz-adv-x="1698" 
d="M117 662v153q0 225 152 353q154 129 395 129h123v184h124v-184h123q241 0 395 -129q152 -128 152 -353v-153q0 -225 -152 -352.5t-395 -127.5h-123v-208h-124v208h-123q-243 0 -395 127.5t-152 352.5zM238 664q0 -169 115 -271t307 -102h127v897h-127q-127 0 -223 -46
t-147.5 -130.5t-51.5 -196.5v-151zM911 291h129q128 0 223 46t146.5 130.5t51.5 196.5v151q0 112 -51.5 196.5t-146.5 130.5t-223 46h-129v-897z" />
    <glyph glyph-name="afii10039" unicode="&#x425;" horiz-adv-x="1278" 
d="M75 0v42l489 702l-474 677v42h121l429 -624l434 624h112v-42l-474 -677l492 -702v-42h-122l-447 648l-447 -648h-113z" />
    <glyph glyph-name="afii10040" unicode="&#x426;" horiz-adv-x="1495" 
d="M201 0v1463h120v-1355h782v1355h121v-1355h188v-413h-113v305h-1098z" />
    <glyph glyph-name="afii10041" unicode="&#x427;" horiz-adv-x="1338" 
d="M138 1030v433h121v-421q0 -336 405 -336q196 0 353 61v696h121v-1463h-121v652q-155 -58 -361 -58q-518 0 -518 436z" />
    <glyph glyph-name="afii10042" unicode="&#x428;" horiz-adv-x="2009" 
d="M201 0v1463h120v-1355h624v1355h120v-1355h623v1355h121v-1463h-1608z" />
    <glyph glyph-name="afii10043" unicode="&#x429;" horiz-adv-x="2079" 
d="M201 0v1463h120v-1355h624v1355h120v-1355h623v1355h121v-1355h188v-413h-113v305h-1683z" />
    <glyph glyph-name="afii10044" unicode="&#x42a;" horiz-adv-x="1491" 
d="M34 1354v109h484v-600h459q193 0 300.5 -115t107.5 -316t-107.5 -316.5t-300.5 -115.5h-580v1354h-363zM518 108h457q54 0 99.5 14.5t80 42t58.5 67t36.5 90t12.5 110.5q0 151 -75.5 236.5t-211.5 85.5h-457v-646z" />
    <glyph glyph-name="afii10045" unicode="&#x42b;" horiz-adv-x="1800" 
d="M201 0v1463h120v-600h460q128 0 220 -52.5t139.5 -149t47.5 -229.5q0 -201 -107 -316.5t-300 -115.5h-580zM321 108h458q136 0 211 86.5t75 237.5q0 75 -19.5 134.5t-55.5 101t-89.5 64t-121.5 22.5h-458v-646zM1479 0v1463h121v-1463h-121z" />
    <glyph glyph-name="afii10046" unicode="&#x42c;" horiz-adv-x="1294" 
d="M201 0v1463h120v-600h460q128 0 220 -52.5t139.5 -149t47.5 -229.5q0 -201 -107 -316.5t-300 -115.5h-580zM321 108h458q136 0 211 86.5t75 237.5q0 75 -19.5 134.5t-55.5 101t-89.5 64t-121.5 22.5h-458v-646z" />
    <glyph glyph-name="afii10047" unicode="&#x42d;" horiz-adv-x="1375" 
d="M140 447v21h121v-21q0 -173 119 -270q122 -95 286 -95q205 0 317.5 103.5t112.5 290.5v205h-628v108h628v197q0 187 -112.5 291t-317.5 104q-164 0 -286 -96q-119 -96 -119 -270v-21h-121v21q0 230 151 353q153 125 375 125q259 0 405.5 -136t146.5 -380v-493
q0 -243 -146.5 -379.5t-405.5 -136.5q-221 0 -375 124q-151 126 -151 355z" />
    <glyph glyph-name="afii10048" unicode="&#x42e;" horiz-adv-x="1919" 
d="M201 0v1463h120v-678h381v199q0 238 142.5 373.5t387.5 135.5q163 0 281.5 -59.5t183 -174.5t64.5 -275v-506q0 -238 -142 -374t-387 -136q-248 0 -389 134.5t-141 375.5v199h-381v-677h-120zM825 478q0 -182 109 -289t298 -107q190 0 298 103t108 285v514
q0 183 -109 290t-297 107q-192 0 -299.5 -103t-107.5 -286v-514z" />
    <glyph glyph-name="afii10049" unicode="&#x42f;" horiz-adv-x="1342" 
d="M123 0v42l355 566q-102 16 -174.5 68.5t-111.5 142.5t-39 213q0 202 105.5 316.5t297.5 114.5h586v-1463h-121v598h-411l-369 -598h-118zM277 1030q0 -77 20.5 -138t58.5 -102t93.5 -62.5t126.5 -21.5h445v648h-445q-142 0 -220.5 -85.5t-78.5 -238.5z" />
    <glyph glyph-name="afii10065" unicode="&#x430;" 
d="M106 279q0 164 113.5 250.5t328.5 86.5h296v124q0 113 -74.5 178.5t-211.5 65.5q-134 0 -209.5 -64.5t-75.5 -171.5h-110q0 76 26 138.5t75 107.5t124 69.5t170 24.5q191 0 295 -92t104 -250v-746h-74l-37 148q-69 -73 -174 -123.5t-219 -50.5q-101 0 -178.5 34.5
t-123 104.5t-45.5 166zM219 293q0 -103 70 -158t185 -55q190 0 370 173v263h-296q-329 0 -329 -223z" />
    <glyph glyph-name="afii10066" unicode="&#x431;" horiz-adv-x="1140" 
d="M148 367v393q0 211 76.5 331.5t253.5 174.5l243 71q70 20 98.5 49.5t28.5 74.5v12h113v-12q0 -95 -46.5 -143t-172.5 -86l-218 -62q-145 -42 -208 -131.5t-63 -251.5v-24q159 188 380 188q174 0 275 -105.5t101 -287.5v-189q0 -179 -114.5 -287t-316.5 -108
q-200 0 -315 107.5t-115 285.5zM261 374q0 -133 84.5 -213.5t232.5 -80.5q152 0 235.5 80.5t83.5 213.5v176q0 133 -76.5 214.5t-208.5 81.5q-178 0 -351 -192v-280z" />
    <glyph glyph-name="afii10067" unicode="&#x432;" horiz-adv-x="1144" 
d="M180 0v1063h486q150 0 232 -70.5t82 -203.5q0 -188 -155 -248q201 -48 201 -252q0 -142 -86 -215.5t-244 -73.5h-516zM293 100h397q104 0 159.5 51t55.5 144q0 91 -56 140t-166 49h-390v-384zM293 580h373q92 0 143.5 53.5t51.5 141.5q0 90 -51.5 139t-149.5 49h-367
v-383z" />
    <glyph glyph-name="afii10068" unicode="&#x433;" horiz-adv-x="951" 
d="M180 0v1063h677v-100h-564v-963h-113z" />
    <glyph glyph-name="afii10069" unicode="&#x434;" horiz-adv-x="1298" 
d="M73 100h96q152 172 152 522v441h732v-963h161v-375h-113v275h-915v-275h-113v375zM295 100h645v863h-510v-355q0 -303 -135 -508z" />
    <glyph glyph-name="afii10070" unicode="&#x435;" horiz-adv-x="1114" 
d="M132 367v327q0 178 115 286t315 108q132 0 228.5 -49t146 -137.5t49.5 -205.5v-203h-741v-124q0 -133 84 -211t233 -78q135 0 212 62.5t91 172.5h112q-12 -159 -120.5 -250t-294.5 -91q-100 0 -181 28.5t-135.5 80t-84 124t-29.5 160.5zM245 594h628v102q0 132 -82.5 210
t-232.5 78q-147 0 -230 -78t-83 -210v-102z" />
    <glyph glyph-name="afii10072" unicode="&#x436;" horiz-adv-x="1601" 
d="M96 0v54l332 487l-317 468v54h102l321 -479h212v479h113v-479h209l323 479h100v-54l-315 -468l333 -487v-54h-108l-327 484h-215v-484h-113v484h-218l-325 -484h-107z" />
    <glyph glyph-name="afii10073" unicode="&#x437;" horiz-adv-x="1094" 
d="M123 349h109q0 -126 86.5 -197.5t241.5 -71.5q136 0 213.5 60t77.5 163q0 88 -66 139t-181 51h-146v101h146q100 0 158.5 49.5t58.5 135.5q0 96 -71 150.5t-202 54.5q-137 0 -213.5 -70.5t-81.5 -197.5h-111q3 116 53 200t141.5 128t217.5 44q119 0 207 -38t133.5 -106
t45.5 -157q0 -92 -51.5 -155t-136.5 -84q100 -20 158.5 -86t58.5 -165q0 -152 -107 -237.5t-300 -85.5q-133 0 -231.5 45.5t-151.5 130t-56 199.5z" />
    <glyph glyph-name="afii10074" unicode="&#x438;" horiz-adv-x="1232" 
d="M180 0v1063h113v-890l647 890h113v-1063h-113v887l-647 -887h-113z" />
    <glyph glyph-name="afii10075" unicode="&#x439;" horiz-adv-x="1232" 
d="M180 0v1063h113v-890l647 890h113v-1063h-113v887l-647 -887h-113zM299 1479v25h102v-23q0 -62 26 -106t74 -67t115 -23q101 0 158 51.5t57 144.5v23h102v-25q0 -132 -86.5 -209.5t-230.5 -77.5q-145 0 -231 77.5t-86 209.5z" />
    <glyph glyph-name="afii10076" unicode="&#x43a;" horiz-adv-x="1085" 
d="M180 0v1063h113v-479h215l373 479h94v-54l-365 -468l382 -487v-54h-103l-377 484h-219v-484h-113z" />
    <glyph glyph-name="afii10077" unicode="&#x43b;" horiz-adv-x="1190" 
d="M50 0v104h12q122 0 172.5 107t50.5 343v509h726v-1063h-112v963h-506v-407q0 -556 -315 -556h-28z" />
    <glyph glyph-name="afii10078" unicode="&#x43c;" horiz-adv-x="1411" 
d="M180 0v1063h113l415 -549l412 549h112v-1063h-112v885l-383 -503h-60l-384 503v-885h-113z" />
    <glyph glyph-name="afii10079" unicode="&#x43d;" horiz-adv-x="1210" 
d="M180 0v1063h113v-483h626v483h113v-1063h-113v480h-626v-480h-113z" />
    <glyph glyph-name="afii10080" unicode="&#x43e;" 
d="M132 369v325q0 177 114 285.5t316 108.5q102 0 184 -29t135.5 -81.5t82 -124.5t28.5 -159v-325q0 -179 -113 -287t-317 -108q-203 0 -316.5 108.5t-113.5 286.5zM245 374q0 -133 84 -213.5t233 -80.5q152 0 234.5 80.5t82.5 213.5v316q0 133 -82.5 213.5t-234.5 80.5
q-148 0 -232.5 -81t-84.5 -213v-316z" />
    <glyph glyph-name="afii10081" unicode="&#x43f;" horiz-adv-x="1200" 
d="M180 0v1063h841v-1063h-112v963h-616v-963h-113z" />
    <glyph glyph-name="afii10082" unicode="&#x440;" horiz-adv-x="1188" 
d="M180 -335v1398h71l36 -160q167 185 381 185q170 0 271 -105.5t101 -286.5v-329q0 -182 -101 -287.5t-275 -105.5q-217 0 -371 181v-490h-113zM293 273q178 -193 359 -193q128 0 201.5 81t73.5 215v311q0 135 -73.5 216t-199.5 81q-182 0 -361 -195v-516z" />
    <glyph glyph-name="afii10083" unicode="&#x441;" horiz-adv-x="1100" 
d="M132 369v325q0 178 114 286t312 108q193 0 307.5 -102t114.5 -270v-10h-113v13q0 120 -83 192.5t-226 72.5q-148 0 -230.5 -78t-82.5 -210v-329q0 -132 82 -209.5t231 -77.5q142 0 225.5 74t83.5 195v12h113v-10q0 -169 -114.5 -273t-307.5 -104q-198 0 -312 108
t-114 287z" />
    <glyph glyph-name="afii10084" unicode="&#x442;" horiz-adv-x="977" 
d="M54 963v100h869v-100h-377v-963h-114v963h-378z" />
    <glyph glyph-name="afii10085" unicode="&#x443;" horiz-adv-x="1041" 
d="M54 1009v54h107l365 -913l361 913h105v-54l-551 -1344h-96v44l125 291z" />
    <glyph glyph-name="afii10086" unicode="&#x444;" horiz-adv-x="1614" 
d="M148 307v447q0 152 81.5 243t219.5 91q171 0 301 -141v526h113v-526q129 141 301 141q139 0 221 -91t82 -243v-447q0 -151 -83 -242t-220 -91q-171 0 -301 143v-452h-113v452q-131 -143 -301 -143q-138 0 -219.5 91t-81.5 242zM261 321q0 -109 60 -175t163 -66
q129 0 266 145v612q-138 147 -266 147q-103 0 -163 -66.5t-60 -175.5v-421zM863 225q137 -145 265 -145q105 0 165.5 66t60.5 175v421q0 71 -26.5 126t-78 85.5t-121.5 30.5q-127 0 -265 -147v-612z" />
    <glyph glyph-name="afii10087" unicode="&#x445;" horiz-adv-x="1068" 
d="M96 0v54l368 476l-366 479v54h105l331 -445l335 445h98v-54l-361 -475l369 -480v-54h-102l-341 453l-338 -453h-98z" />
    <glyph glyph-name="afii10088" unicode="&#x446;" horiz-adv-x="1265" 
d="M180 0v1063h113v-963h612v963h112v-963h163v-375h-112v275h-888z" />
    <glyph glyph-name="afii10089" unicode="&#x447;" horiz-adv-x="1127" 
d="M117 725v338h113v-328q0 -79 38.5 -133t108 -79.5t166.5 -25.5q156 0 292 42v524h114v-1063h-114v435q-148 -42 -309 -42q-95 0 -170.5 20.5t-128.5 61.5t-81.5 104.5t-28.5 145.5z" />
    <glyph glyph-name="afii10090" unicode="&#x448;" horiz-adv-x="1614" 
d="M180 0v1063h113v-963h457v963h113v-963h459v963h113v-1063h-1255z" />
    <glyph glyph-name="afii10091" unicode="&#x449;" horiz-adv-x="1680" 
d="M180 0v1063h113v-963h457v963h113v-963h459v963h113v-963h161v-375h-113v275h-1303z" />
    <glyph glyph-name="afii10092" unicode="&#x44a;" horiz-adv-x="1224" 
d="M12 963v100h423v-386h392q150 0 237 -91t87 -249t-87 -247.5t-237 -89.5h-506v963h-309zM435 100h367q108 0 172 64.5t64 172.5q0 74 -29 128t-82.5 82.5t-124.5 28.5h-367v-476z" />
    <glyph glyph-name="afii10093" unicode="&#x44b;" horiz-adv-x="1495" 
d="M180 0v1063h113v-386h384q150 0 237 -91t87 -249t-87 -247.5t-237 -89.5h-497zM293 100h357q108 0 172.5 64.5t64.5 172.5q0 110 -63.5 174.5t-171.5 64.5h-359v-476zM1204 0v1063h112v-1063h-112z" />
    <glyph glyph-name="afii10094" unicode="&#x44c;" horiz-adv-x="1094" 
d="M180 0v1063h113v-386h405q149 0 236 -91t87 -249t-86.5 -247.5t-236.5 -89.5h-518zM293 100h377q108 0 173.5 64.5t65.5 172.5q0 73 -29 127t-82.5 83t-125.5 29h-379v-476z" />
    <glyph glyph-name="afii10095" unicode="&#x44d;" horiz-adv-x="1114" 
d="M123 361h113q0 -129 82.5 -205t231.5 -76q150 0 235.5 80.5t85.5 213.5v106h-426v100h426v110q0 133 -85.5 213.5t-235.5 80.5q-149 0 -231.5 -75.5t-82.5 -202.5h-113q0 175 114.5 278.5t312.5 103.5q203 0 318.5 -108t115.5 -290v-316q0 -182 -115.5 -291t-318.5 -109
q-131 0 -228 48t-148 135.5t-51 203.5z" />
    <glyph glyph-name="afii10096" unicode="&#x44e;" horiz-adv-x="1555" 
d="M180 0v1063h113v-483h287v118q0 177 112 283.5t310.5 106.5t310.5 -106.5t112 -283.5v-333q0 -177 -112 -284t-310 -107q-100 0 -180 28.5t-133 80.5t-81.5 123.5t-28.5 158.5v115h-287v-480h-113zM694 369q0 -131 82.5 -210t226.5 -79q146 0 227.5 79.5t81.5 209.5v325
q0 130 -81.5 210t-227.5 80q-144 0 -226.5 -79.5t-82.5 -210.5v-325z" />
    <glyph glyph-name="afii10097" unicode="&#x44f;" horiz-adv-x="1114" 
d="M115 0v54l261 387q-113 17 -177.5 97.5t-64.5 209.5q0 148 82 231.5t223 83.5h497v-1063h-113v430h-324l-276 -430h-108zM247 752q0 -106 58 -164t159 -58h359v433h-359q-100 0 -158.5 -57.5t-58.5 -153.5z" />
    <glyph glyph-name="afii10071" unicode="&#x451;" horiz-adv-x="1114" 
d="M132 367v327q0 178 115 286t315 108q132 0 228.5 -49t146 -137.5t49.5 -205.5v-203h-741v-124q0 -133 84 -211t233 -78q135 0 212 62.5t91 172.5h112q-12 -159 -120.5 -250t-294.5 -91q-100 0 -181 28.5t-135.5 80t-84 124t-29.5 160.5zM245 594h628v102q0 132 -82.5 210
t-232.5 78q-147 0 -230 -78t-83 -210v-102zM317 1243v230h113v-230h-113zM696 1243v230h113v-230h-113z" />
    <glyph glyph-name="afii10099" unicode="&#x452;" horiz-adv-x="1206" 
d="M30 1149v92h171v232h112v-232h498v-92h-498v-416q160 180 377 180q164 0 263.5 -105t99.5 -292v-530q0 -345 -288 -345q-18 0 -65 4v100q14 -2 54 -2q98 0 142 59t44 184v516q0 149 -73 228t-197 79q-95 0 -189 -54.5t-168 -140.5v-614h-112v1149h-171z" />
    <glyph glyph-name="afii10100" unicode="&#x453;" horiz-adv-x="951" 
d="M180 0v1063h677v-100h-564v-963h-113zM418 1232l224 293h116v-42l-226 -251h-114z" />
    <glyph glyph-name="afii10101" unicode="&#x454;" horiz-adv-x="1112" 
d="M132 374v316q0 182 115.5 290t318.5 108q198 0 312 -103.5t114 -278.5h-113q0 127 -82 202.5t-231 75.5q-150 0 -235.5 -80.5t-85.5 -213.5v-110h425v-100h-425v-106q0 -133 85.5 -213.5t235.5 -80.5q149 0 231 76t82 205h113q0 -176 -114 -281.5t-312 -105.5
q-203 0 -318.5 109t-115.5 291z" />
    <glyph glyph-name="afii10102" unicode="&#x455;" 
d="M117 355h113q0 -139 103 -207t247 -68q135 0 214 55t79 144q0 72 -47 111t-162 70l-240 62q-137 37 -199 98.5t-62 173.5q0 133 105.5 213.5t287.5 80.5q192 0 303.5 -96t111.5 -273h-112q0 64 -22.5 114.5t-63.5 83.5t-98 50t-127 17q-130 0 -201.5 -51.5t-71.5 -134.5
q0 -48 18.5 -79.5t59 -54t111.5 -40.5l238 -60q149 -39 216.5 -101t67.5 -176q0 -141 -111 -227t-303 -86q-198 0 -327 97q-128 96 -128 284z" />
    <glyph glyph-name="afii10103" unicode="&#x456;" horiz-adv-x="471" 
d="M180 0v1063h113v-1063h-113zM180 1243v230h113v-230h-113z" />
    <glyph glyph-name="afii10104" unicode="&#x457;" horiz-adv-x="471" 
d="M-8 1243v230h112v-230h-112zM180 0v1063h113v-1063h-113zM369 1243v230h113v-230h-113z" />
    <glyph glyph-name="afii10105" unicode="&#x458;" horiz-adv-x="471" 
d="M-60 -255q18 -2 54 -2q98 0 142 58.5t44 184.5v1077h113v-1077q0 -345 -289 -345q-13 0 -64 4v100zM180 1243v230h113v-230h-113z" />
    <glyph glyph-name="afii10106" unicode="&#x459;" horiz-adv-x="1772" 
d="M50 0v104h12q122 0 172.5 107t50.5 343v509h709v-386h383q149 0 236 -91t87 -249t-86.5 -247.5t-236.5 -89.5h-496v963h-488v-407q0 -556 -315 -556h-28zM994 100h358q106 0 170.5 64.5t64.5 172.5q0 110 -64.5 174.5t-170.5 64.5h-358v-476z" />
    <glyph glyph-name="afii10107" unicode="&#x45a;" horiz-adv-x="1762" 
d="M180 0v1063h113v-413h590v413h114v-413h369q149 0 236.5 -87.5t87.5 -239.5q0 -151 -87 -237t-237 -86h-483v550h-590v-550h-113zM997 100h342q108 0 173 61t65 162q0 105 -64.5 166t-171.5 61h-344v-450z" />
    <glyph glyph-name="afii10108" unicode="&#x45b;" horiz-adv-x="1206" 
d="M30 1149v92h171v232h112v-232h498v-92h-498v-416q160 180 377 180q164 0 263.5 -105t99.5 -292v-516h-113v502q0 149 -73 228t-197 79q-95 0 -189 -54.5t-168 -140.5v-614h-112v1149h-171z" />
    <glyph glyph-name="afii10109" unicode="&#x45c;" horiz-adv-x="1085" 
d="M180 0v1063h113v-479h215l373 479h94v-54l-365 -468l382 -487v-54h-103l-377 484h-219v-484h-113zM466 1232l224 293h117v-42l-227 -251h-114z" />
    <glyph glyph-name="afii10110" unicode="&#x45e;" horiz-adv-x="1041" 
d="M54 1009v54h107l365 -913l361 913h105v-54l-551 -1344h-96v44l125 291zM209 1479v25h102v-23q0 -62 26 -106t74.5 -67t114.5 -23q101 0 158.5 51.5t57.5 144.5v23h102v-25q0 -132 -87 -209.5t-231 -77.5t-230.5 77.5t-86.5 209.5z" />
    <glyph glyph-name="afii10193" unicode="&#x45f;" horiz-adv-x="1202" 
d="M180 0v1063h113v-963h618v963h113v-1063h-366v-263h-112v263h-366z" />
    <glyph glyph-name="afii10050" unicode="&#x490;" horiz-adv-x="1150" 
d="M201 0v1463h741v271h113v-380h-734v-1354h-120z" />
    <glyph glyph-name="afii10098" unicode="&#x491;" horiz-adv-x="941" 
d="M180 0v1063h553v257h113v-357h-553v-963h-113z" />
    <glyph glyph-name="endash" unicode="&#x2013;" horiz-adv-x="1214" 
d="M136 602v104h944v-104h-944z" />
    <glyph glyph-name="emdash" unicode="&#x2014;" horiz-adv-x="1704" 
d="M136 602v104h1433v-104h-1433z" />
    <glyph glyph-name="quoteleft" unicode="&#x2018;" horiz-adv-x="450" 
d="M117 1003v54l176 416h89l-141 -470h-124z" />
    <glyph glyph-name="quoteright" unicode="&#x2019;" horiz-adv-x="450" 
d="M69 1007l142 470h124v-54l-176 -416h-90z" />
    <glyph glyph-name="quotesinglbase" unicode="&#x201a;" horiz-adv-x="436" 
d="M69 -201l142 470h124v-54l-176 -416h-90z" />
    <glyph glyph-name="quotedblleft" unicode="&#x201c;" horiz-adv-x="807" 
d="M117 1003v54l176 416h89l-141 -470h-124zM474 1003v54l176 416h90l-142 -470h-124z" />
    <glyph glyph-name="quotedblright" unicode="&#x201d;" horiz-adv-x="807" 
d="M69 1003l142 470h124v-54l-176 -416h-90zM426 1003l142 470h124v-54l-176 -416h-90z" />
    <glyph glyph-name="quotedblbase" unicode="&#x201e;" horiz-adv-x="807" 
d="M69 -201l142 470h124v-54l-176 -416h-90zM426 -201l142 470h124v-54l-176 -416h-90z" />
    <glyph glyph-name="dagger" unicode="&#x2020;" horiz-adv-x="1100" 
d="M75 933v101h420v439h113v-439h420v-101h-420v-1268h-113v1268h-420z" />
    <glyph glyph-name="daggerdbl" unicode="&#x2021;" horiz-adv-x="1100" 
d="M75 325v101h420v507h-420v101h420v439h113v-439h420v-101h-420v-507h420v-101h-420v-660h-113v660h-420z" />
    <glyph glyph-name="bullet" unicode="&#x2022;" horiz-adv-x="757" 
d="M138 662v13q0 114 63.5 176t178.5 62q75 0 129.5 -27.5t83.5 -81t29 -129.5v-13q0 -112 -64.5 -175t-177.5 -63q-115 0 -178.5 62t-63.5 176z" />
    <glyph glyph-name="ellipsis" unicode="&#x2026;" horiz-adv-x="1369" 
d="M165 0v269h122v-269h-122zM624 0v269h122v-269h-122zM1084 0v269h122v-269h-122z" />
    <glyph glyph-name="perthousand" unicode="&#x2030;" horiz-adv-x="2288" 
d="M96 1030v167q0 138 80.5 217t224.5 79t224.5 -78.5t80.5 -217.5v-167q0 -138 -80.5 -217.5t-224.5 -79.5t-224.5 80t-80.5 217zM197 1021q0 -90 53.5 -144t150.5 -54q96 0 150.5 54.5t54.5 143.5v185q0 90 -53.5 144t-151.5 54q-97 0 -150.5 -54t-53.5 -144v-185zM337 0
v42l821 1421h98v-42l-824 -1421h-95zM887 265v167q0 138 81 217.5t224 79.5q145 0 226 -79t81 -218v-167q0 -138 -81 -217.5t-226 -79.5q-143 0 -224 80t-81 217zM988 257q0 -89 55 -144t149 -55q97 0 152 55.5t55 143.5v184q0 90 -54 144.5t-153 54.5q-94 0 -149 -55
t-55 -144v-184zM1583 265v167q0 68 20.5 123t59 94t96 59.5t129.5 20.5t129.5 -20.5t96.5 -58.5t60 -93.5t21 -124.5v-167q0 -91 -36 -158t-105.5 -103t-165.5 -36q-144 0 -224.5 80t-80.5 217zM1684 257q0 -89 55 -144t149 -55q97 0 152 55.5t55 143.5v184
q0 90 -54.5 144.5t-152.5 54.5q-94 0 -149 -55t-55 -144v-184z" />
    <glyph glyph-name="guilsinglleft" unicode="&#x2039;" horiz-adv-x="684" 
d="M96 562l355 430h101v-45l-320 -385l320 -385v-45h-101z" />
    <glyph glyph-name="guilsinglright" unicode="&#x203a;" horiz-adv-x="684" 
d="M134 132v45l319 385l-319 385v45h100l356 -430l-356 -430h-100z" />
    <glyph glyph-name="fraction" unicode="&#x2044;" horiz-adv-x="734" 
d="M-92 0v42l821 1421h98v-42l-823 -1421h-96z" />
    <glyph glyph-name="Euro" unicode="&#x20ac;" horiz-adv-x="1395" 
d="M62 510v104h179v232h-179v105h179v39q0 236 139 369.5t378 133.5q216 0 356 -127q144 -129 144 -361v-21h-109v21q0 184 -112.5 284t-278.5 100q-189 0 -297 -105.5t-108 -293.5v-39h516v-105h-516v-232h516v-104h-516v-38q0 -187 108 -293t297 -106q115 0 202 44
t138 131.5t51 209.5v20h109v-20q0 -235 -142 -364q-141 -126 -358 -126q-239 0 -378 134.5t-139 369.5v38h-179z" />
    <glyph glyph-name="afii61352" unicode="&#x2116;" horiz-adv-x="2085" 
d="M201 0v1463h104l737 -1240v1240h114v-1463h-105l-738 1238v-1238h-112zM1345 464v90h612v-90h-612zM1345 1030v167q0 138 80.5 217t224.5 79q145 0 226 -78.5t81 -217.5v-167q0 -138 -81 -217.5t-226 -79.5q-144 0 -224.5 80t-80.5 217zM1445 1015q0 -89 55.5 -143.5
t149.5 -54.5q65 0 112 25.5t71 70t24 102.5v197q0 90 -54 144t-153 54q-94 0 -149.5 -54.5t-55.5 -143.5v-197z" />
    <glyph glyph-name="trademark" unicode="&#x2122;" horiz-adv-x="1425" 
d="M28 1375v88h511v-88h-209v-604h-94v604h-208zM677 771v692h88l223 -329l228 329h90v-692h-96v528l-189 -275h-64l-186 271v-524h-94z" />
    <glyph glyph-name="partialdiff" unicode="&#x2202;" horiz-adv-x="1138" 
d="M100 323q0 30 19 235q12 122 65 210.5t141 135.5t203 47q215 0 367 -199q0 4 0.5 15.5l1.5 33l2 41.5q4 95 4 107q-2 210 -100.5 318t-286.5 108q-114 0 -231 -32l8 102q114 32 248 32q227 0 346.5 -135.5t119.5 -380.5q0 -123 -44 -594q-14 -178 -137.5 -285.5
t-323.5 -107.5q-185 0 -293.5 95.5t-108.5 253.5zM213 345q0 -121 79.5 -193t219.5 -72q148 0 237 80t102 214l26 286q-153 186 -331 186q-135 0 -219 -79.5t-97 -216.5q-17 -170 -17 -205z" />
    <glyph glyph-name="uni2206" unicode="&#x2206;" horiz-adv-x="1365" 
d="M54 0v42l566 1421h124l568 -1421v-42h-1258zM205 108h948l-472 1194z" />
    <glyph glyph-name="product" unicode="&#x220f;" horiz-adv-x="1413" 
d="M201 -157v1620h1013v-1620h-113v1515h-788v-1515h-112z" />
    <glyph glyph-name="summation" unicode="&#x2211;" horiz-adv-x="1150" 
d="M117 -50l401 712l-401 696v105h892v-105h-764l407 -696l-407 -712h789v-105h-917v105z" />
    <glyph glyph-name="radical" unicode="&#x221a;" horiz-adv-x="1194" 
d="M14 748v105h305l316 -837l433 1649h102v-42l-466 -1780h-112l-351 905h-227z" />
    <glyph glyph-name="infinity" unicode="&#x221e;" horiz-adv-x="1802" 
d="M138 662q0 168 96 274q95 106 255 106q105 0 188 -65q85 -63 204 -204l22 -25l20 25q120 141 201 204q84 65 190 65q159 0 255 -106t96 -274q0 -167 -96 -273q-97 -107 -255 -107q-108 0 -196 62.5t-197 207.5l-18 24l-20 -24q-72 -97 -132 -154.5t-124.5 -88
t-137.5 -30.5q-159 0 -255 108q-96 109 -96 275zM251 660q0 -121 67 -197t175 -76q78 0 145.5 54t174.5 192l20 27l-33 40q-67 80 -110 127q-37 42 -91.5 73t-105.5 31q-108 0 -175 -75.5t-67 -195.5zM969 660l21 -27q72 -93 120 -142.5t97.5 -76.5t104.5 -27q106 0 174 76
t68 197q0 119 -68 195t-174 76q-46 0 -83 -15t-80 -55q-27 -25 -71 -74q-18 -18 -88 -102z" />
    <glyph glyph-name="integral" unicode="&#x222b;" horiz-adv-x="678" 
d="M-12 -234h66q109 0 170 62t61 178v1118q0 157 87 248t236 91h84v-101h-68q-109 0 -169 -61.5t-60 -178.5v-1118q0 -157 -87 -248t-237 -91h-83v101z" />
    <glyph glyph-name="approxequal" unicode="&#x2248;" horiz-adv-x="995" 
d="M113 395q73 108 121.5 149.5t108.5 41.5q72 0 144 -56l50 -37q63 -48 117 -48q22 0 42.5 12t47 41t69.5 86l70 -54q-68 -106 -118.5 -148.5t-112.5 -42.5q-70 0 -140 52l-52 39q-65 50 -109 50q-41 0 -70.5 -25t-98.5 -114zM113 779q73 108 121.5 150t108.5 42
q72 0 144 -56l50 -38q63 -48 117 -48q33 0 64.5 28t94.5 112l70 -54q-68 -107 -118.5 -149.5t-112.5 -42.5q-70 0 -140 52l-52 40q-65 50 -109 50q-41 0 -70.5 -25t-98.5 -115z" />
    <glyph glyph-name="notequal" unicode="&#x2260;" horiz-adv-x="1166" 
d="M138 0v42l209 338h-209v96h269l221 357h-490v96h549l226 358h92v-42l-196 -316h196v-96h-255l-224 -357h479v-96h-539l-234 -380h-94z" />
    <glyph glyph-name="lessequal" unicode="&#x2264;" horiz-adv-x="1014" 
d="M113 44v96h790v-96h-790zM113 679v94l729 376h61v-75l-667 -347l667 -349v-75h-61z" />
    <glyph glyph-name="greaterequal" unicode="&#x2265;" horiz-adv-x="1014" 
d="M113 44v96h790v-96h-790zM113 303v75l666 349l-666 347v75h60l730 -376v-94l-730 -376h-60z" />
    <glyph glyph-name="lozenge" unicode="&#x25ca;" horiz-adv-x="1120" 
d="M117 731l401 732h90l399 -732l-401 -731h-88zM238 731l324 -593l323 593l-323 593z" />
    <glyph glyph-name="uni25FC" unicode="&#x25fc;" horiz-adv-x="1064" 
d="M0 0v1065h1065v-1065h-1065z" />
    </font>
</defs>
</svg>
